<svg xmlns="http://www.w3.org/2000/svg" xmlns:xlink="http://www.w3.org/1999/xlink" width="100" zoomAndPan="magnify" viewBox="0 0 75 74.999997" height="100" preserveAspectRatio="xMidYMid meet" version="1.0"><defs><clipPath id="1b685cd502"><path d="M 56 21 L 67.5 21 L 67.5 40 L 56 40 Z M 56 21 " clip-rule="nonzero"/></clipPath><clipPath id="f9f6d783f5"><path d="M 7.5 10.6875 L 41 10.6875 L 41 47 L 7.5 47 Z M 7.5 10.6875 " clip-rule="nonzero"/></clipPath><clipPath id="c34bb3e892"><path d="M 41 48 L 56 48 L 56 64.6875 L 41 64.6875 Z M 41 48 " clip-rule="nonzero"/></clipPath></defs><path fill="#222c42" d="M 52.019531 34.125 C 52.03125 34.136719 52.046875 34.148438 52.054688 34.160156 Z M 52.019531 34.125 " fill-opacity="1" fill-rule="evenodd"/><g clip-path="url(#1b685cd502)"><path fill="#44b9c4" d="M 56.792969 23.476562 C 56.8125 23.417969 56.835938 23.367188 56.863281 23.308594 L 56.863281 23.296875 L 56.871094 23.277344 L 56.871094 23.269531 L 56.882812 23.242188 L 56.894531 23.21875 L 56.902344 23.195312 L 56.902344 23.183594 L 56.925781 23.144531 L 56.925781 23.136719 L 56.9375 23.117188 L 56.941406 23.105469 L 56.945312 23.089844 L 56.945312 23.085938 L 56.953125 23.074219 L 56.957031 23.058594 L 56.960938 23.046875 L 56.972656 23.03125 L 56.976562 23.019531 L 57.011719 22.972656 L 57.019531 22.957031 L 57.042969 22.925781 C 57.199219 22.65625 57.402344 22.414062 57.628906 22.207031 C 57.675781 22.164062 57.730469 22.113281 57.78125 22.074219 C 57.792969 22.0625 57.804688 22.054688 57.8125 22.050781 C 57.824219 22.046875 57.835938 22.035156 57.84375 22.03125 L 57.851562 22.023438 L 57.878906 22.003906 L 57.882812 21.996094 C 58.015625 21.902344 58.152344 21.8125 58.292969 21.738281 C 58.351562 21.707031 58.417969 21.671875 58.480469 21.648438 C 58.636719 21.570312 58.808594 21.511719 58.976562 21.472656 C 59.03125 21.453125 59.078125 21.445312 59.128906 21.433594 C 59.347656 21.386719 59.574219 21.363281 59.808594 21.363281 C 61.59375 21.363281 63.039062 22.824219 63.039062 24.617188 C 63.039062 25.613281 62.59375 26.503906 61.894531 27.097656 L 64.164062 33.054688 C 64.195312 33.054688 64.226562 33.054688 64.257812 33.054688 C 66.039062 33.054688 67.488281 34.515625 67.488281 36.308594 C 67.488281 38.105469 66.039062 39.5625 64.257812 39.5625 C 62.472656 39.5625 61.027344 38.109375 61.027344 36.308594 C 61.027344 35.3125 61.472656 34.425781 62.171875 33.828125 L 59.902344 27.871094 C 59.871094 27.871094 59.839844 27.871094 59.808594 27.871094 C 58.433594 27.871094 57.257812 27.007812 56.792969 25.789062 L 56.789062 25.773438 L 56.78125 25.761719 C 56.777344 25.746094 56.773438 25.730469 56.765625 25.714844 L 56.761719 25.703125 C 56.757812 25.6875 56.75 25.671875 56.746094 25.65625 L 56.746094 25.648438 C 56.730469 25.601562 56.714844 25.550781 56.699219 25.496094 C 56.65625 25.347656 56.625 25.1875 56.601562 25.027344 L 56.601562 24.957031 C 56.59375 24.851562 56.585938 24.746094 56.582031 24.640625 L 56.582031 24.621094 C 56.585938 24.503906 56.59375 24.386719 56.609375 24.277344 L 56.609375 24.265625 L 56.613281 24.234375 L 56.613281 24.222656 L 56.617188 24.195312 L 56.617188 24.179688 L 56.625 24.152344 L 56.625 24.136719 L 56.628906 24.113281 L 56.628906 24.101562 C 56.628906 24.089844 56.632812 24.078125 56.632812 24.070312 L 56.632812 24.0625 L 56.640625 24.042969 C 56.671875 23.882812 56.71875 23.722656 56.773438 23.574219 Z M 56.792969 23.476562 " fill-opacity="1" fill-rule="evenodd"/></g><path fill="#222c42" d="M 45.964844 14.140625 C 46.050781 14.054688 46.140625 13.972656 46.234375 13.898438 C 46.378906 13.78125 46.53125 13.671875 46.6875 13.570312 C 46.816406 13.488281 46.949219 13.410156 47.082031 13.339844 C 47.25 13.253906 47.425781 13.175781 47.609375 13.113281 C 47.714844 13.074219 47.820312 13.039062 47.933594 13.003906 C 48.03125 12.980469 48.136719 12.953125 48.238281 12.929688 C 48.285156 12.921875 48.339844 12.910156 48.386719 12.902344 C 48.527344 12.878906 48.671875 12.863281 48.816406 12.851562 C 48.863281 12.84375 48.90625 12.84375 48.953125 12.839844 C 49.03125 12.835938 49.109375 12.835938 49.195312 12.835938 C 49.234375 12.835938 49.269531 12.835938 49.304688 12.835938 C 49.363281 12.835938 49.417969 12.839844 49.476562 12.839844 L 49.570312 12.839844 C 49.613281 12.84375 49.65625 12.84375 49.699219 12.851562 L 49.835938 12.851562 C 49.878906 12.855469 49.917969 12.863281 49.960938 12.871094 L 49.96875 12.871094 L 49.984375 12.878906 L 50.046875 12.878906 L 50.066406 12.882812 C 50.105469 12.886719 50.148438 12.898438 50.183594 12.910156 L 50.199219 12.910156 C 50.214844 12.914062 50.238281 12.921875 50.253906 12.921875 L 50.257812 12.921875 L 50.289062 12.929688 C 50.332031 12.941406 50.371094 12.953125 50.410156 12.960938 L 50.421875 12.96875 L 50.433594 12.96875 L 50.441406 12.972656 L 50.449219 12.972656 C 50.460938 12.980469 50.476562 12.980469 50.484375 12.984375 L 50.496094 12.984375 L 50.515625 12.988281 C 50.554688 13 50.589844 13.011719 50.628906 13.027344 L 50.734375 13.027344 C 50.769531 13.039062 50.808594 13.054688 50.84375 13.070312 L 50.855469 13.070312 L 50.859375 13.074219 L 50.871094 13.078125 L 50.882812 13.085938 L 50.898438 13.085938 L 50.914062 13.089844 L 50.925781 13.089844 L 50.929688 13.097656 L 50.941406 13.101562 L 50.945312 13.101562 L 50.949219 13.105469 C 50.988281 13.121094 51.019531 13.136719 51.058594 13.15625 L 51.078125 13.15625 L 51.089844 13.160156 L 51.105469 13.164062 L 51.113281 13.164062 L 51.136719 13.175781 L 51.140625 13.175781 L 51.148438 13.179688 L 51.152344 13.179688 L 51.164062 13.1875 C 51.199219 13.203125 51.238281 13.222656 51.269531 13.238281 L 51.273438 13.246094 L 51.285156 13.246094 L 51.308594 13.261719 L 51.34375 13.261719 L 51.351562 13.265625 L 51.363281 13.265625 C 51.433594 13.304688 51.496094 13.339844 51.5625 13.382812 C 51.597656 13.40625 51.628906 13.425781 51.660156 13.445312 C 51.671875 13.453125 51.679688 13.464844 51.691406 13.46875 C 51.742188 13.503906 51.796875 13.539062 51.851562 13.574219 L 51.855469 13.574219 L 51.875 13.589844 L 51.898438 13.605469 L 51.921875 13.628906 L 51.945312 13.628906 C 51.976562 13.648438 52.007812 13.675781 52.035156 13.699219 L 52.070312 13.699219 L 52.082031 13.703125 C 52.128906 13.738281 52.175781 13.78125 52.21875 13.820312 L 52.234375 13.820312 L 52.242188 13.824219 L 52.246094 13.824219 L 52.25 13.832031 L 52.261719 13.832031 L 52.265625 13.835938 L 52.273438 13.839844 L 52.285156 13.839844 L 52.289062 13.847656 C 52.316406 13.875 52.347656 13.898438 52.375 13.925781 L 52.382812 13.925781 L 52.390625 13.933594 L 52.398438 13.933594 L 52.40625 13.9375 L 52.410156 13.941406 L 52.414062 13.949219 L 52.421875 13.953125 L 52.425781 13.957031 C 52.457031 13.992188 52.484375 14.023438 52.515625 14.054688 L 52.519531 14.058594 L 52.519531 14.085938 L 52.527344 14.089844 L 52.527344 14.113281 L 52.53125 14.117188 L 52.53125 14.125 C 52.558594 14.15625 52.589844 14.1875 52.617188 14.21875 L 52.632812 14.242188 L 52.632812 14.265625 L 52.636719 14.273438 L 52.644531 14.28125 L 52.648438 14.289062 L 52.664062 14.304688 C 52.722656 14.375 52.773438 14.449219 52.824219 14.515625 C 52.847656 14.554688 52.871094 14.585938 52.898438 14.625 C 52.949219 14.703125 53.003906 14.785156 53.050781 14.867188 L 53.050781 14.890625 L 53.054688 14.894531 L 53.054688 14.902344 C 53.113281 15 53.167969 15.097656 53.214844 15.203125 C 53.234375 15.246094 53.257812 15.289062 53.273438 15.332031 C 53.308594 15.421875 53.347656 15.511719 53.382812 15.605469 L 53.382812 15.613281 C 53.398438 15.65625 53.414062 15.699219 53.429688 15.746094 C 53.460938 15.847656 53.496094 15.949219 53.519531 16.054688 C 53.546875 16.167969 53.574219 16.28125 53.59375 16.390625 C 53.617188 16.515625 53.636719 16.636719 53.648438 16.765625 C 53.652344 16.832031 53.65625 16.902344 53.664062 16.972656 C 53.667969 17.0625 53.667969 17.152344 53.667969 17.242188 C 53.667969 17.328125 53.667969 17.410156 53.664062 17.492188 L 53.664062 17.527344 C 53.648438 17.808594 53.605469 18.078125 53.542969 18.34375 C 53.5 18.515625 53.453125 18.679688 53.394531 18.839844 C 53.324219 19.027344 53.246094 19.214844 53.15625 19.390625 C 53.152344 19.40625 53.140625 19.421875 53.132812 19.433594 C 53.128906 19.449219 53.117188 19.457031 53.113281 19.472656 L 53.113281 19.480469 C 53.109375 19.496094 53.097656 19.507812 53.09375 19.523438 L 53.085938 19.527344 C 53.082031 19.542969 53.070312 19.554688 53.0625 19.570312 C 53.050781 19.585938 53.042969 19.597656 53.035156 19.613281 L 53.035156 19.617188 C 53.027344 19.628906 53.019531 19.644531 53.011719 19.65625 L 53.007812 19.660156 C 53.003906 19.671875 52.992188 19.6875 52.980469 19.699219 L 52.980469 19.707031 C 52.976562 19.71875 52.964844 19.734375 52.953125 19.746094 L 52.949219 19.75 C 52.945312 19.761719 52.933594 19.773438 52.929688 19.78125 L 52.921875 19.792969 C 52.917969 19.804688 52.90625 19.816406 52.902344 19.824219 L 52.898438 19.835938 C 52.890625 19.847656 52.878906 19.859375 52.875 19.867188 L 52.863281 19.882812 L 52.84375 19.910156 L 52.832031 19.925781 L 52.8125 19.953125 L 52.800781 19.964844 L 52.78125 19.996094 L 52.773438 20.007812 C 52.769531 20.015625 52.757812 20.027344 52.753906 20.035156 L 52.738281 20.054688 L 52.722656 20.082031 L 52.710938 20.097656 C 52.707031 20.109375 52.695312 20.117188 52.691406 20.125 L 52.679688 20.140625 C 52.675781 20.152344 52.664062 20.160156 52.660156 20.167969 L 52.648438 20.175781 L 52.628906 20.203125 C 52.515625 20.335938 52.398438 20.464844 52.277344 20.585938 C 52.121094 20.742188 51.949219 20.890625 51.765625 21.023438 C 51.628906 21.125 51.492188 21.214844 51.34375 21.300781 C 51.195312 21.386719 51.046875 21.460938 50.886719 21.53125 L 50.882812 21.535156 L 50.875 21.539062 L 50.84375 21.539062 L 50.839844 21.546875 L 50.835938 21.550781 L 50.828125 21.554688 L 50.824219 21.5625 C 50.707031 21.609375 50.589844 21.652344 50.46875 21.695312 C 50.417969 21.710938 50.363281 21.726562 50.3125 21.742188 C 50.242188 21.765625 50.171875 21.78125 50.101562 21.796875 L 50.101562 33.050781 C 50.136719 33.0625 50.171875 33.066406 50.207031 33.078125 C 50.695312 33.207031 51.601562 33.707031 51.601562 33.707031 C 51.6875 33.757812 51.765625 33.816406 51.84375 33.882812 C 51.855469 33.890625 51.871094 33.902344 51.882812 33.914062 C 52.976562 34.769531 53.679688 36.113281 53.679688 37.621094 C 53.679688 38.679688 53.332031 39.660156 52.742188 40.441406 L 56.519531 45.003906 C 57.265625 44.605469 58.113281 44.375 59.019531 44.375 C 61.941406 44.375 64.316406 46.765625 64.316406 49.710938 C 64.316406 52.65625 61.941406 55.046875 59.019531 55.046875 C 56.09375 55.046875 53.722656 52.65625 53.722656 49.710938 C 53.722656 48.453125 54.15625 47.292969 54.878906 46.382812 L 51.105469 41.820312 C 50.476562 42.132812 49.773438 42.316406 49.019531 42.316406 C 48.414062 42.316406 47.835938 42.199219 47.300781 41.984375 L 47.277344 41.984375 L 47.265625 41.980469 L 47.21875 41.980469 L 47.203125 41.972656 L 47.195312 41.972656 C 47.160156 41.957031 47.128906 41.941406 47.089844 41.925781 L 47.015625 41.925781 L 47.007812 41.921875 L 46.980469 41.921875 C 46.941406 41.90625 46.90625 41.882812 46.871094 41.867188 L 46.863281 41.867188 L 46.851562 41.863281 C 46.832031 41.851562 46.8125 41.839844 46.789062 41.824219 L 46.777344 41.824219 C 46.746094 41.808594 46.710938 41.789062 46.679688 41.765625 L 46.566406 41.765625 C 46.535156 41.746094 46.503906 41.722656 46.472656 41.703125 L 46.386719 41.703125 L 46.378906 41.691406 L 46.371094 41.691406 L 46.367188 41.6875 C 46.335938 41.664062 46.304688 41.644531 46.273438 41.617188 L 46.265625 41.617188 L 46.261719 41.613281 L 46.238281 41.613281 L 46.21875 41.597656 L 46.171875 41.597656 C 46.140625 41.574219 46.109375 41.546875 46.082031 41.527344 L 46.074219 41.527344 L 46.070312 41.523438 L 46.023438 41.523438 L 46.019531 41.515625 L 46 41.515625 C 45.96875 41.488281 45.945312 41.464844 45.910156 41.441406 L 45.84375 41.441406 C 45.796875 41.394531 45.742188 41.347656 45.695312 41.296875 L 45.691406 41.292969 L 45.683594 41.289062 L 45.683594 41.28125 C 45.660156 41.25 45.625 41.222656 45.601562 41.191406 L 45.578125 41.164062 L 45.546875 41.132812 L 45.546875 41.121094 C 45.496094 41.058594 45.441406 41 45.386719 40.929688 C 45.363281 40.898438 45.335938 40.867188 45.316406 40.828125 C 45.261719 40.761719 45.214844 40.6875 45.160156 40.613281 L 45.160156 40.605469 L 45.152344 40.59375 L 45.152344 40.574219 L 45.144531 40.5625 C 45.085938 40.472656 45.035156 40.382812 44.980469 40.285156 C 44.960938 40.25 44.9375 40.207031 44.917969 40.164062 C 44.855469 40.035156 44.796875 39.910156 44.742188 39.777344 C 44.726562 39.726562 44.707031 39.683594 44.691406 39.636719 C 44.648438 39.523438 44.613281 39.410156 44.578125 39.296875 L 44.578125 39.214844 L 44.574219 39.207031 L 44.574219 39.199219 C 44.546875 39.089844 44.523438 38.976562 44.5 38.859375 C 44.488281 38.800781 44.480469 38.738281 44.472656 38.671875 C 44.449219 38.492188 44.4375 38.3125 44.429688 38.125 L 44.429688 38.082031 C 44.429688 38.066406 44.429688 38.054688 44.429688 38.039062 C 44.429688 37.863281 44.441406 37.695312 44.457031 37.527344 C 44.46875 37.421875 44.484375 37.320312 44.5 37.21875 C 44.503906 37.203125 44.503906 37.1875 44.511719 37.171875 C 44.53125 37.058594 44.558594 36.953125 44.585938 36.84375 C 44.636719 36.648438 44.695312 36.464844 44.769531 36.28125 C 44.859375 36.058594 44.964844 35.847656 45.085938 35.644531 L 45.101562 35.617188 L 45.101562 35.613281 L 45.117188 35.585938 L 45.117188 35.582031 L 45.125 35.574219 L 45.136719 35.558594 L 45.144531 35.542969 L 45.152344 35.539062 L 45.160156 35.523438 L 45.167969 35.515625 L 45.175781 35.5 L 45.191406 35.480469 L 45.199219 35.46875 L 45.203125 35.457031 L 45.214844 35.441406 L 45.21875 35.4375 L 45.234375 35.414062 L 45.242188 35.410156 L 45.261719 35.378906 C 45.273438 35.363281 45.28125 35.347656 45.292969 35.328125 L 45.304688 35.3125 C 45.445312 35.117188 45.601562 34.929688 45.769531 34.753906 C 45.78125 34.746094 45.789062 34.734375 45.796875 34.726562 C 45.804688 34.71875 45.816406 34.707031 45.828125 34.695312 C 45.839844 34.6875 45.847656 34.675781 45.863281 34.664062 C 45.875 34.652344 45.886719 34.644531 45.894531 34.632812 L 45.902344 34.628906 C 45.910156 34.617188 45.921875 34.605469 45.933594 34.59375 L 45.9375 34.59375 C 45.949219 34.585938 45.960938 34.574219 45.96875 34.5625 C 45.980469 34.550781 45.992188 34.546875 46 34.535156 L 46.011719 34.527344 L 46.039062 34.503906 L 46.042969 34.5 C 46.191406 34.371094 46.34375 34.253906 46.507812 34.144531 C 46.636719 34.058594 46.773438 33.976562 46.910156 33.902344 C 46.976562 33.871094 47.03125 33.839844 47.097656 33.808594 C 47.117188 33.796875 47.144531 33.785156 47.164062 33.773438 L 47.175781 33.769531 L 47.179688 33.765625 L 47.210938 33.765625 C 47.234375 33.753906 47.25 33.75 47.269531 33.738281 C 47.328125 33.710938 47.386719 33.691406 47.441406 33.667969 C 47.589844 33.617188 47.734375 33.566406 47.890625 33.523438 L 47.90625 33.523438 C 47.9375 33.515625 47.96875 33.507812 48.003906 33.5 L 48.003906 22.242188 C 47.949219 22.226562 47.890625 22.214844 47.832031 22.199219 C 47.792969 22.191406 47.757812 22.179688 47.71875 22.167969 C 47.636719 22.140625 47.550781 22.113281 47.464844 22.082031 L 47.457031 22.078125 L 47.425781 22.078125 C 47.339844 22.046875 47.253906 22.015625 47.175781 21.976562 C 47.140625 21.960938 47.105469 21.945312 47.070312 21.929688 C 46.976562 21.886719 46.886719 21.832031 46.796875 21.785156 L 46.785156 21.78125 L 46.761719 21.78125 C 46.730469 21.757812 46.695312 21.742188 46.664062 21.722656 L 46.652344 21.714844 L 46.640625 21.710938 L 46.617188 21.710938 C 46.597656 21.699219 46.578125 21.6875 46.5625 21.679688 C 46.53125 21.65625 46.5 21.636719 46.46875 21.613281 L 46.460938 21.609375 L 46.433594 21.59375 L 46.429688 21.59375 C 46.34375 21.535156 46.265625 21.476562 46.1875 21.414062 C 46.15625 21.386719 46.128906 21.363281 46.097656 21.335938 C 46.007812 21.261719 45.917969 21.183594 45.832031 21.105469 C 45.804688 21.078125 45.773438 21.050781 45.75 21.019531 C 45.664062 20.933594 45.585938 20.84375 45.503906 20.746094 C 45.476562 20.714844 45.453125 20.683594 45.425781 20.652344 C 45.347656 20.554688 45.273438 20.449219 45.203125 20.347656 C 45.175781 20.304688 45.152344 20.261719 45.125 20.226562 C 45.101562 20.191406 45.085938 20.160156 45.066406 20.128906 C 45.042969 20.09375 45.023438 20.054688 44.996094 20.011719 C 44.953125 19.933594 44.914062 19.851562 44.871094 19.765625 C 44.828125 19.683594 44.792969 19.597656 44.753906 19.507812 C 44.71875 19.414062 44.679688 19.320312 44.648438 19.222656 C 44.617188 19.121094 44.585938 19.023438 44.558594 18.921875 C 44.515625 18.753906 44.484375 18.589844 44.457031 18.421875 L 44.457031 18.398438 C 44.449219 18.335938 44.441406 18.269531 44.4375 18.207031 L 44.4375 18.152344 C 44.425781 18.015625 44.414062 17.871094 44.414062 17.726562 C 44.414062 17.488281 44.4375 17.253906 44.472656 17.023438 C 44.488281 16.90625 44.515625 16.785156 44.542969 16.671875 C 44.753906 15.777344 45.214844 14.984375 45.847656 14.367188 Z M 45.964844 14.140625 " fill-opacity="1" fill-rule="evenodd"/><path fill="#44b9c4" d="M 37.035156 25.917969 C 37.183594 25.347656 37.472656 24.835938 37.875 24.429688 C 38.027344 24.277344 38.191406 24.136719 38.371094 24.019531 L 38.382812 24.019531 L 38.386719 24.015625 L 38.398438 24.015625 L 38.410156 24.011719 L 38.414062 24.011719 L 38.421875 24.003906 L 38.425781 24.003906 L 38.429688 24 L 38.4375 24 L 38.441406 23.996094 L 38.445312 23.996094 L 38.460938 23.984375 L 38.472656 23.980469 L 38.476562 23.972656 L 38.484375 23.96875 L 38.492188 23.960938 L 38.5 23.957031 L 38.503906 23.953125 L 38.515625 23.945312 L 38.519531 23.941406 L 38.527344 23.9375 L 38.53125 23.929688 L 38.535156 23.925781 L 38.542969 23.921875 L 38.546875 23.914062 L 38.566406 23.894531 C 38.632812 23.855469 38.691406 23.824219 38.757812 23.792969 C 38.921875 23.710938 39.089844 23.648438 39.265625 23.601562 C 39.320312 23.585938 39.367188 23.574219 39.417969 23.558594 C 39.519531 23.535156 39.625 23.515625 39.730469 23.5 L 39.859375 23.5 C 39.90625 23.492188 39.949219 23.492188 39.996094 23.488281 C 40.046875 23.488281 40.101562 23.484375 40.152344 23.484375 C 40.234375 23.484375 40.308594 23.488281 40.386719 23.492188 L 40.390625 23.492188 C 40.476562 23.5 40.5625 23.511719 40.640625 23.519531 C 40.71875 23.53125 40.800781 23.546875 40.878906 23.570312 C 40.957031 23.585938 41.03125 23.605469 41.105469 23.632812 C 41.179688 23.652344 41.253906 23.679688 41.328125 23.707031 C 41.363281 23.722656 41.402344 23.734375 41.433594 23.75 L 41.542969 23.75 C 41.582031 23.765625 41.613281 23.78125 41.644531 23.804688 L 41.652344 23.808594 L 41.65625 23.808594 L 41.660156 23.8125 L 41.757812 23.8125 C 41.789062 23.835938 41.824219 23.851562 41.855469 23.871094 C 41.921875 23.914062 41.988281 23.957031 42.046875 24 C 42.109375 24.046875 42.167969 24.089844 42.230469 24.144531 C 42.289062 24.191406 42.347656 24.246094 42.40625 24.304688 C 42.464844 24.355469 42.519531 24.414062 42.570312 24.472656 L 42.570312 24.496094 L 42.574219 24.5 C 42.640625 24.574219 42.703125 24.65625 42.761719 24.738281 C 42.789062 24.777344 42.808594 24.808594 42.835938 24.847656 L 42.835938 24.855469 L 42.839844 24.863281 L 42.839844 24.878906 L 42.84375 24.882812 L 42.84375 24.953125 C 42.867188 24.988281 42.886719 25.03125 42.914062 25.070312 C 42.972656 25.175781 43.019531 25.28125 43.066406 25.394531 L 43.066406 25.417969 L 43.074219 25.425781 L 43.074219 25.457031 C 43.089844 25.507812 43.109375 25.554688 43.125 25.601562 C 43.132812 25.617188 43.136719 25.628906 43.140625 25.644531 C 43.148438 25.65625 43.148438 25.667969 43.152344 25.675781 L 43.15625 25.6875 L 43.15625 25.75 C 43.171875 25.804688 43.183594 25.859375 43.199219 25.917969 L 43.199219 26.058594 L 43.203125 26.078125 C 43.214844 26.140625 43.222656 26.203125 43.230469 26.261719 C 43.242188 26.375 43.246094 26.484375 43.246094 26.601562 C 43.246094 26.671875 43.246094 26.742188 43.242188 26.804688 L 43.242188 26.816406 C 43.222656 27.152344 43.148438 27.476562 43.03125 27.78125 C 42.914062 28.078125 42.753906 28.355469 42.558594 28.605469 C 42.386719 28.828125 42.183594 29.027344 41.960938 29.195312 C 41.777344 29.335938 41.578125 29.457031 41.359375 29.558594 C 41.300781 29.585938 41.242188 29.613281 41.183594 29.632812 C 41.078125 29.675781 40.96875 29.707031 40.863281 29.738281 L 40.839844 29.738281 L 40.824219 29.746094 C 40.695312 29.777344 40.554688 29.804688 40.417969 29.820312 C 40.371094 29.824219 40.324219 29.828125 40.277344 29.835938 C 40.191406 29.839844 40.105469 29.847656 40.023438 29.847656 C 39.992188 29.847656 39.957031 29.847656 39.925781 29.847656 L 39.921875 29.847656 C 39.828125 29.839844 39.738281 29.835938 39.640625 29.824219 C 39.5625 29.8125 39.476562 29.804688 39.398438 29.789062 C 39.320312 29.769531 39.238281 29.753906 39.164062 29.730469 C 39.089844 29.707031 39.015625 29.679688 38.945312 29.652344 C 38.90625 29.644531 38.871094 29.628906 38.832031 29.613281 L 38.789062 29.613281 C 38.769531 29.601562 38.746094 29.589844 38.722656 29.585938 C 38.683594 29.570312 38.652344 29.554688 38.617188 29.535156 C 38.582031 29.519531 38.546875 29.503906 38.515625 29.484375 C 38.484375 29.46875 38.445312 29.445312 38.414062 29.425781 C 38.347656 29.386719 38.28125 29.34375 38.21875 29.304688 C 38.15625 29.261719 38.09375 29.210938 38.035156 29.164062 C 37.96875 29.117188 37.914062 29.0625 37.855469 29.011719 C 37.796875 28.957031 37.738281 28.898438 37.683594 28.84375 C 37.601562 28.753906 37.519531 28.664062 37.445312 28.5625 C 37.394531 28.492188 37.347656 28.425781 37.304688 28.351562 C 37.285156 28.3125 37.257812 28.273438 37.234375 28.238281 C 37.167969 28.117188 37.101562 27.992188 37.050781 27.867188 C 37.03125 27.816406 37.011719 27.773438 36.996094 27.726562 C 36.960938 27.632812 36.929688 27.53125 36.902344 27.421875 L 36.902344 27.417969 L 36.898438 27.402344 L 36.898438 27.28125 L 36.890625 27.261719 C 36.875 27.195312 36.867188 27.125 36.855469 27.054688 L 36.855469 27.019531 C 36.839844 26.890625 36.828125 26.757812 36.828125 26.625 L 36.828125 26.554688 C 36.832031 26.289062 36.867188 26.035156 36.929688 25.789062 Z M 37.035156 25.917969 " fill-opacity="1" fill-rule="evenodd"/><path fill="#222c42" d="M 19.453125 37.960938 C 19.464844 37.964844 19.476562 37.964844 19.484375 37.96875 Z M 19.453125 37.960938 " fill-opacity="1" fill-rule="evenodd"/><path fill="#44b9c4" d="M 24.902344 27.492188 C 24.984375 27.414062 25.074219 27.339844 25.164062 27.261719 C 25.367188 27.105469 25.578125 26.960938 25.804688 26.835938 C 25.867188 26.804688 25.925781 26.773438 25.988281 26.742188 L 26.046875 26.742188 C 26.085938 26.726562 26.128906 26.703125 26.164062 26.6875 C 26.222656 26.660156 26.273438 26.640625 26.332031 26.621094 L 26.355469 26.621094 L 26.363281 26.613281 L 26.386719 26.613281 L 26.390625 26.609375 C 26.40625 26.601562 26.421875 26.597656 26.4375 26.59375 L 26.449219 26.59375 L 26.460938 26.585938 L 26.476562 26.582031 L 26.480469 26.582031 C 26.539062 26.5625 26.597656 26.542969 26.65625 26.527344 C 26.757812 26.503906 26.855469 26.476562 26.960938 26.453125 C 27.105469 26.421875 27.246094 26.402344 27.394531 26.386719 C 27.445312 26.378906 27.492188 26.375 27.535156 26.375 C 27.628906 26.371094 27.730469 26.363281 27.824219 26.363281 C 27.867188 26.363281 27.910156 26.371094 27.949219 26.371094 C 28.050781 26.375 28.148438 26.386719 28.242188 26.394531 L 28.289062 26.394531 C 28.378906 26.40625 28.46875 26.421875 28.558594 26.445312 C 28.597656 26.453125 28.636719 26.460938 28.675781 26.46875 C 28.753906 26.484375 28.828125 26.507812 28.902344 26.527344 L 28.941406 26.527344 C 29.015625 26.550781 29.082031 26.578125 29.152344 26.597656 L 29.167969 26.601562 L 29.179688 26.609375 L 29.230469 26.609375 C 29.304688 26.636719 29.375 26.667969 29.441406 26.699219 C 29.480469 26.714844 29.511719 26.730469 29.546875 26.746094 C 29.558594 26.753906 29.570312 26.757812 29.585938 26.761719 L 29.59375 26.769531 L 29.621094 26.769531 L 29.632812 26.773438 L 29.652344 26.785156 C 29.683594 26.800781 29.722656 26.820312 29.753906 26.835938 C 29.824219 26.875 29.890625 26.917969 29.953125 26.953125 L 29.960938 26.960938 L 29.992188 26.960938 L 30.003906 26.964844 L 30.007812 26.964844 L 30.023438 26.976562 C 30.085938 27.019531 30.152344 27.0625 30.207031 27.105469 L 30.234375 27.105469 C 30.296875 27.152344 30.363281 27.199219 30.425781 27.253906 C 30.457031 27.28125 30.484375 27.300781 30.515625 27.328125 C 30.585938 27.386719 30.648438 27.445312 30.710938 27.507812 L 30.714844 27.515625 C 30.785156 27.582031 30.847656 27.652344 30.910156 27.726562 C 30.9375 27.757812 30.964844 27.789062 30.992188 27.824219 C 31.070312 27.917969 31.144531 28.019531 31.21875 28.125 C 31.246094 28.164062 31.265625 28.195312 31.289062 28.234375 C 31.363281 28.34375 31.425781 28.460938 31.488281 28.578125 C 31.507812 28.621094 31.53125 28.660156 31.550781 28.699219 C 31.59375 28.785156 31.632812 28.875 31.667969 28.96875 C 31.707031 29.0625 31.738281 29.160156 31.769531 29.253906 C 31.800781 29.355469 31.832031 29.460938 31.851562 29.570312 C 31.894531 29.746094 31.921875 29.925781 31.941406 30.113281 C 31.949219 30.179688 31.953125 30.25 31.957031 30.3125 L 31.957031 30.378906 C 31.964844 30.441406 31.964844 30.5 31.964844 30.566406 C 31.964844 30.640625 31.964844 30.714844 31.957031 30.78125 L 31.957031 31.011719 C 31.949219 31.117188 31.933594 31.226562 31.910156 31.332031 L 31.910156 31.375 L 31.90625 31.382812 L 31.90625 31.460938 L 31.902344 31.46875 L 31.894531 31.480469 L 31.894531 31.507812 L 31.890625 31.519531 L 31.890625 31.550781 L 31.886719 31.558594 L 31.878906 31.570312 L 31.875 31.582031 L 31.875 31.585938 L 31.867188 31.601562 L 31.867188 31.636719 L 31.863281 31.644531 L 31.859375 31.65625 L 31.851562 31.667969 L 31.847656 31.675781 L 31.847656 31.714844 C 31.804688 31.859375 31.757812 31.996094 31.699219 32.136719 L 31.726562 32.15625 L 31.820312 32.226562 L 31.917969 32.296875 L 32.011719 32.363281 L 32.105469 32.433594 L 32.203125 32.503906 L 32.296875 32.570312 L 32.390625 32.640625 L 32.488281 32.710938 L 32.582031 32.78125 L 32.679688 32.847656 L 32.773438 32.917969 L 32.863281 32.988281 L 32.957031 33.054688 L 33.054688 33.125 L 33.242188 33.265625 L 33.339844 33.332031 L 33.527344 33.472656 L 33.625 33.539062 L 33.71875 33.609375 L 33.816406 33.679688 L 33.910156 33.75 L 34.003906 33.816406 L 34.101562 33.886719 L 34.195312 33.957031 L 34.289062 34.023438 L 34.386719 34.09375 L 34.574219 34.234375 L 34.671875 34.300781 L 34.761719 34.371094 L 34.855469 34.441406 L 34.953125 34.511719 L 35.046875 34.578125 L 35.140625 34.648438 L 35.238281 34.71875 L 35.332031 34.785156 L 35.425781 34.855469 L 35.515625 34.925781 L 35.613281 34.996094 L 35.707031 35.0625 L 35.804688 35.132812 L 35.898438 35.203125 L 35.992188 35.269531 L 36.089844 35.339844 L 36.277344 35.480469 L 36.300781 35.496094 C 36.363281 35.464844 36.421875 35.429688 36.484375 35.398438 L 36.5 35.394531 L 36.511719 35.386719 L 36.53125 35.378906 L 36.542969 35.378906 L 36.558594 35.371094 L 36.585938 35.371094 L 36.601562 35.367188 L 36.660156 35.367188 C 36.710938 35.347656 36.769531 35.324219 36.824219 35.308594 C 36.867188 35.292969 36.90625 35.28125 36.949219 35.269531 L 36.964844 35.265625 C 37.019531 35.25 37.078125 35.238281 37.136719 35.230469 L 37.292969 35.230469 C 37.339844 35.222656 37.390625 35.210938 37.4375 35.207031 L 37.558594 35.207031 C 37.609375 35.203125 37.664062 35.203125 37.710938 35.203125 C 37.773438 35.203125 37.84375 35.207031 37.90625 35.207031 C 37.992188 35.210938 38.070312 35.222656 38.15625 35.234375 C 38.277344 35.253906 38.394531 35.277344 38.511719 35.3125 C 38.582031 35.335938 38.65625 35.363281 38.730469 35.386719 C 38.769531 35.40625 38.804688 35.414062 38.835938 35.429688 C 38.90625 35.464844 38.980469 35.496094 39.050781 35.527344 C 39.117188 35.5625 39.1875 35.601562 39.25 35.636719 C 39.351562 35.695312 39.445312 35.765625 39.535156 35.835938 C 39.597656 35.882812 39.65625 35.9375 39.714844 35.988281 C 39.742188 36.015625 39.773438 36.042969 39.800781 36.070312 C 39.882812 36.15625 39.96875 36.246094 40.042969 36.339844 C 40.070312 36.375 40.097656 36.40625 40.117188 36.441406 L 40.117188 36.464844 C 40.1875 36.558594 40.25 36.660156 40.300781 36.765625 C 40.324219 36.808594 40.34375 36.847656 40.367188 36.890625 C 40.40625 36.980469 40.445312 37.070312 40.480469 37.160156 L 40.480469 37.21875 L 40.488281 37.230469 C 40.492188 37.25 40.503906 37.273438 40.507812 37.300781 C 40.523438 37.351562 40.539062 37.402344 40.550781 37.453125 C 40.578125 37.566406 40.605469 37.683594 40.613281 37.804688 C 40.628906 37.933594 40.640625 38.0625 40.640625 38.1875 C 40.640625 38.289062 40.636719 38.390625 40.625 38.488281 C 40.613281 38.59375 40.597656 38.699219 40.578125 38.804688 L 40.578125 38.8125 L 40.570312 38.828125 L 40.570312 38.839844 L 40.566406 38.859375 L 40.566406 38.871094 C 40.566406 38.882812 40.5625 38.886719 40.5625 38.898438 L 40.554688 38.921875 C 40.523438 39.050781 40.488281 39.175781 40.441406 39.292969 C 40.328125 39.566406 40.179688 39.828125 39.996094 40.058594 L 39.984375 40.070312 L 39.972656 40.078125 C 39.957031 40.09375 39.949219 40.117188 39.933594 40.132812 L 39.921875 40.144531 L 39.910156 40.152344 L 39.898438 40.164062 C 39.882812 40.179688 39.867188 40.195312 39.851562 40.21875 L 39.84375 40.226562 C 39.832031 40.238281 39.820312 40.253906 39.808594 40.265625 L 39.800781 40.277344 L 39.789062 40.285156 C 39.777344 40.296875 39.769531 40.308594 39.753906 40.324219 L 39.742188 40.335938 L 39.730469 40.34375 L 39.71875 40.355469 L 39.710938 40.367188 L 39.695312 40.382812 L 39.6875 40.386719 C 39.546875 40.519531 39.394531 40.636719 39.222656 40.738281 C 39.160156 40.777344 39.097656 40.8125 39.027344 40.847656 C 38.90625 40.910156 38.78125 40.960938 38.648438 41.011719 L 38.578125 41.011719 L 38.550781 41.015625 C 38.488281 41.039062 38.425781 41.054688 38.363281 41.070312 L 38.292969 41.070312 L 38.277344 41.074219 C 38.257812 41.078125 38.230469 41.085938 38.207031 41.089844 C 38.160156 41.101562 38.113281 41.105469 38.066406 41.113281 C 37.945312 41.128906 37.824219 41.136719 37.699219 41.136719 L 37.679688 41.136719 C 37.636719 41.136719 37.59375 41.136719 37.546875 41.132812 L 37.378906 41.511719 L 36.304688 43.871094 L 35.703125 45.191406 C 35.746094 45.226562 35.78125 45.265625 35.820312 45.308594 L 35.820312 45.316406 L 35.824219 45.324219 L 35.824219 45.328125 L 35.828125 45.335938 L 35.828125 45.339844 L 35.835938 45.351562 L 35.855469 45.371094 C 35.882812 45.402344 35.914062 45.433594 35.941406 45.46875 C 36.019531 45.5625 36.097656 45.660156 36.167969 45.765625 C 36.195312 45.800781 36.214844 45.835938 36.234375 45.871094 L 36.234375 45.878906 L 36.242188 45.886719 L 36.253906 45.902344 C 36.257812 45.914062 36.261719 45.925781 36.273438 45.9375 L 36.277344 45.945312 L 36.285156 45.953125 L 36.289062 45.960938 L 36.300781 45.976562 L 36.300781 45.984375 C 36.324219 46.027344 36.347656 46.0625 36.367188 46.105469 L 36.375 46.117188 L 36.378906 46.121094 L 36.378906 46.132812 L 36.390625 46.144531 L 36.390625 46.152344 L 36.394531 46.160156 L 36.398438 46.164062 L 36.398438 46.171875 L 36.40625 46.1875 L 36.410156 46.191406 C 36.433594 46.234375 36.453125 46.277344 36.46875 46.320312 L 36.46875 46.457031 C 36.488281 46.511719 36.511719 46.5625 36.527344 46.617188 L 36.527344 46.621094 L 36.539062 46.644531 C 36.542969 46.660156 36.546875 46.671875 36.554688 46.6875 L 36.558594 46.695312 L 36.5625 46.707031 L 36.5625 46.714844 L 36.570312 46.730469 C 36.585938 46.78125 36.601562 46.832031 36.613281 46.882812 C 36.644531 47 36.664062 47.117188 36.6875 47.238281 L 36.6875 47.390625 C 36.695312 47.492188 36.703125 47.597656 36.707031 47.703125 L 36.707031 47.808594 C 36.707031 47.949219 36.695312 48.082031 36.6875 48.210938 L 36.6875 48.25 C 36.664062 48.433594 36.628906 48.609375 36.578125 48.777344 C 36.523438 48.996094 36.441406 49.203125 36.34375 49.402344 C 36.335938 49.417969 36.324219 49.429688 36.320312 49.445312 C 36.316406 49.460938 36.304688 49.472656 36.300781 49.488281 C 36.277344 49.53125 36.253906 49.574219 36.230469 49.613281 L 36.230469 49.621094 C 36.226562 49.628906 36.214844 49.648438 36.210938 49.65625 L 36.210938 49.664062 C 36.203125 49.671875 36.195312 49.6875 36.1875 49.699219 C 36.171875 49.726562 36.15625 49.753906 36.140625 49.78125 L 36.136719 49.785156 C 36.125 49.796875 36.121094 49.8125 36.109375 49.824219 L 36.105469 49.828125 C 36.09375 49.839844 36.089844 49.855469 36.078125 49.863281 C 36.0625 49.890625 36.046875 49.914062 36.023438 49.941406 L 36.019531 49.949219 C 36.015625 49.960938 36.003906 49.972656 36 49.980469 L 35.992188 49.992188 C 35.984375 50.003906 35.976562 50.015625 35.964844 50.023438 L 35.960938 50.03125 C 35.949219 50.039062 35.945312 50.050781 35.933594 50.0625 C 35.925781 50.074219 35.917969 50.082031 35.910156 50.09375 L 35.898438 50.105469 C 35.890625 50.117188 35.882812 50.125 35.875 50.132812 L 35.867188 50.140625 C 35.855469 50.152344 35.851562 50.164062 35.839844 50.175781 L 35.835938 50.179688 C 35.824219 50.191406 35.820312 50.199219 35.808594 50.210938 C 35.796875 50.222656 35.792969 50.234375 35.78125 50.242188 L 35.777344 50.25 C 35.765625 50.257812 35.761719 50.269531 35.75 50.273438 L 35.746094 50.28125 C 35.734375 50.292969 35.730469 50.296875 35.71875 50.308594 C 35.558594 50.472656 35.386719 50.625 35.199219 50.757812 C 35.132812 50.808594 35.0625 50.855469 34.988281 50.898438 C 34.824219 51 34.65625 51.085938 34.480469 51.160156 L 34.476562 51.164062 L 34.46875 51.167969 L 34.464844 51.175781 L 34.453125 51.175781 L 34.4375 51.179688 C 34.332031 51.222656 34.222656 51.261719 34.109375 51.292969 C 34.058594 51.308594 34.011719 51.320312 33.957031 51.335938 C 33.863281 51.355469 33.761719 51.378906 33.660156 51.394531 C 33.566406 51.410156 33.476562 51.417969 33.382812 51.425781 L 33.347656 51.425781 C 33.273438 51.429688 33.203125 51.429688 33.128906 51.429688 C 33.105469 51.429688 33.078125 51.429688 33.058594 51.429688 L 33.054688 51.429688 C 32.988281 51.429688 32.925781 51.425781 32.859375 51.417969 C 32.730469 51.410156 32.609375 51.394531 32.488281 51.371094 C 32.410156 51.355469 32.328125 51.339844 32.25 51.320312 C 32.210938 51.308594 32.171875 51.296875 32.132812 51.285156 C 32.023438 51.253906 31.910156 51.21875 31.800781 51.175781 C 31.761719 51.160156 31.726562 51.144531 31.6875 51.128906 L 31.679688 51.128906 L 31.667969 51.121094 L 31.65625 51.121094 L 31.640625 51.117188 L 31.621094 51.105469 L 31.613281 51.105469 L 31.605469 51.101562 L 31.597656 51.101562 L 31.582031 51.09375 C 31.546875 51.078125 31.515625 51.0625 31.476562 51.042969 C 31.378906 50.988281 31.277344 50.929688 31.179688 50.871094 C 31.148438 50.851562 31.117188 50.828125 31.085938 50.808594 C 31.023438 50.765625 30.960938 50.71875 30.902344 50.667969 C 30.8125 50.59375 30.722656 50.519531 30.636719 50.441406 C 30.578125 50.386719 30.527344 50.328125 30.46875 50.269531 C 30.441406 50.238281 30.414062 50.210938 30.386719 50.179688 C 30.335938 50.117188 30.28125 50.050781 30.234375 49.988281 C 30.183594 49.917969 30.132812 49.847656 30.09375 49.773438 C 30.042969 49.699219 30.003906 49.625 29.960938 49.546875 C 29.917969 49.464844 29.875 49.378906 29.839844 49.296875 C 29.78125 49.15625 29.726562 49.019531 29.679688 48.875 C 29.664062 48.820312 29.648438 48.773438 29.636719 48.71875 C 29.59375 48.550781 29.5625 48.367188 29.542969 48.1875 C 29.53125 48.074219 29.527344 47.964844 29.519531 47.847656 L 29.519531 47.84375 C 29.519531 47.632812 29.542969 47.433594 29.574219 47.234375 C 29.59375 47.101562 29.628906 46.972656 29.664062 46.847656 C 29.765625 46.5 29.914062 46.175781 30.101562 45.878906 L 30.101562 45.871094 C 30.109375 45.859375 30.117188 45.851562 30.125 45.839844 L 30.128906 45.835938 C 30.144531 45.8125 30.160156 45.792969 30.171875 45.769531 L 30.175781 45.765625 C 30.183594 45.753906 30.191406 45.742188 30.199219 45.734375 L 30.203125 45.726562 C 30.207031 45.71875 30.21875 45.707031 30.226562 45.695312 C 30.230469 45.6875 30.242188 45.675781 30.246094 45.664062 L 30.25 45.660156 C 30.257812 45.648438 30.265625 45.636719 30.273438 45.632812 L 30.277344 45.628906 L 30.296875 45.605469 L 30.304688 45.601562 C 30.308594 45.589844 30.320312 45.585938 30.324219 45.574219 L 30.335938 45.5625 L 30.351562 45.542969 L 30.363281 45.53125 L 30.378906 45.511719 L 30.386719 45.5 C 30.394531 45.492188 30.40625 45.484375 30.410156 45.476562 L 30.421875 45.460938 L 30.4375 45.441406 L 30.441406 45.433594 L 30.460938 45.414062 L 30.472656 45.398438 L 30.488281 45.375 C 30.648438 45.207031 30.828125 45.050781 31.019531 44.914062 C 31.085938 44.867188 31.160156 44.816406 31.230469 44.769531 C 31.402344 44.664062 31.589844 44.566406 31.785156 44.488281 C 31.835938 44.464844 31.894531 44.445312 31.953125 44.421875 C 32.070312 44.386719 32.1875 44.347656 32.308594 44.324219 L 32.425781 44.324219 C 32.472656 44.3125 32.519531 44.304688 32.570312 44.296875 C 32.667969 44.28125 32.757812 44.269531 32.851562 44.265625 C 32.9375 44.257812 33.027344 44.253906 33.117188 44.253906 L 33.164062 44.253906 C 33.207031 44.253906 33.25 44.257812 33.292969 44.257812 L 33.421875 44.257812 C 33.449219 44.265625 33.472656 44.265625 33.496094 44.269531 L 33.816406 43.578125 L 34.886719 41.222656 L 35.347656 40.21875 C 35.316406 40.1875 35.285156 40.152344 35.253906 40.117188 L 35.242188 40.105469 L 35.242188 40.09375 L 35.238281 40.089844 L 35.230469 40.085938 L 35.230469 40.035156 C 35.207031 40.003906 35.179688 39.972656 35.15625 39.941406 L 35.152344 39.933594 C 35.105469 39.871094 35.058594 39.800781 35.007812 39.726562 C 34.953125 39.636719 34.902344 39.546875 34.855469 39.449219 L 34.851562 39.433594 L 34.839844 39.417969 L 34.835938 39.414062 L 34.828125 39.402344 L 34.824219 39.386719 L 34.820312 39.375 C 34.796875 39.332031 34.78125 39.285156 34.761719 39.242188 L 34.761719 39.09375 C 34.746094 39.046875 34.730469 38.992188 34.714844 38.945312 C 34.707031 38.917969 34.699219 38.890625 34.691406 38.867188 L 34.691406 38.84375 C 34.6875 38.828125 34.6875 38.8125 34.683594 38.800781 L 34.683594 38.78125 C 34.671875 38.722656 34.660156 38.664062 34.648438 38.605469 L 34.648438 38.59375 L 34.644531 38.574219 L 34.644531 38.550781 C 34.640625 38.523438 34.640625 38.503906 34.632812 38.476562 C 34.625 38.386719 34.617188 38.300781 34.613281 38.210938 L 34.613281 38.1875 C 34.617188 38.09375 34.628906 38.003906 34.640625 37.90625 L 34.640625 37.871094 L 34.644531 37.847656 L 34.644531 37.796875 L 34.648438 37.777344 L 34.648438 37.703125 L 34.65625 37.679688 L 34.65625 37.542969 L 34.566406 37.476562 L 34.46875 37.40625 L 34.375 37.335938 L 34.28125 37.269531 L 34.183594 37.199219 L 34.089844 37.128906 L 34 37.058594 L 33.90625 36.992188 L 33.808594 36.921875 L 33.714844 36.851562 L 33.617188 36.785156 L 33.429688 36.644531 L 33.332031 36.574219 L 33.242188 36.507812 L 33.054688 36.367188 L 32.957031 36.300781 L 32.769531 36.160156 L 32.671875 36.089844 L 32.578125 36.023438 L 32.480469 35.953125 L 32.386719 35.882812 L 32.292969 35.816406 L 32.195312 35.746094 L 32.007812 35.605469 L 31.910156 35.539062 L 31.722656 35.398438 L 31.625 35.328125 L 31.53125 35.261719 L 31.433594 35.191406 L 31.34375 35.121094 L 31.25 35.054688 L 31.15625 34.984375 L 31.058594 34.914062 L 30.964844 34.84375 L 30.871094 34.777344 L 30.773438 34.707031 L 30.679688 34.636719 L 30.585938 34.570312 L 30.488281 34.5 L 30.394531 34.429688 L 30.296875 34.359375 L 30.203125 34.292969 L 30.109375 34.222656 L 30.054688 34.183594 C 30.011719 34.222656 29.964844 34.261719 29.917969 34.292969 L 29.902344 34.308594 L 29.871094 34.328125 L 29.863281 34.328125 L 29.859375 34.335938 L 29.847656 34.339844 L 29.832031 34.351562 L 29.828125 34.355469 L 29.816406 34.359375 L 29.8125 34.367188 L 29.792969 34.375 L 29.785156 34.382812 L 29.78125 34.382812 L 29.773438 34.386719 L 29.769531 34.386719 L 29.765625 34.394531 L 29.742188 34.402344 L 29.738281 34.410156 L 29.734375 34.410156 L 29.726562 34.414062 C 29.660156 34.457031 29.589844 34.5 29.519531 34.542969 L 29.515625 34.542969 L 29.511719 34.546875 L 29.503906 34.550781 L 29.5 34.558594 L 29.488281 34.558594 L 29.484375 34.5625 L 29.480469 34.570312 L 29.472656 34.574219 L 29.464844 34.574219 L 29.457031 34.578125 L 29.453125 34.585938 L 29.449219 34.589844 L 29.4375 34.589844 L 29.429688 34.59375 L 29.425781 34.601562 L 29.421875 34.605469 L 29.410156 34.605469 L 29.394531 34.621094 L 29.378906 34.621094 L 29.375 34.628906 L 29.367188 34.632812 L 29.359375 34.632812 L 29.351562 34.636719 L 29.347656 34.644531 L 29.335938 34.644531 L 29.332031 34.648438 C 29.273438 34.679688 29.210938 34.710938 29.144531 34.738281 C 29.097656 34.761719 29.050781 34.78125 28.996094 34.804688 L 28.964844 34.804688 C 28.90625 34.828125 28.84375 34.851562 28.785156 34.871094 L 28.78125 34.871094 C 28.753906 34.882812 28.722656 34.894531 28.695312 34.902344 L 28.6875 34.902344 L 28.675781 34.910156 L 28.644531 34.910156 L 28.632812 34.914062 C 28.582031 34.929688 28.527344 34.945312 28.472656 34.960938 L 28.320312 34.960938 C 28.257812 34.980469 28.195312 34.988281 28.132812 35 L 28.113281 35 C 28.097656 35 28.089844 35.003906 28.074219 35.003906 L 28.023438 35.003906 C 27.976562 35.011719 27.925781 35.019531 27.878906 35.027344 L 27.859375 35.027344 C 27.84375 35.027344 27.828125 35.03125 27.8125 35.03125 C 27.792969 35.03125 27.765625 35.035156 27.746094 35.035156 C 27.699219 35.042969 27.65625 35.042969 27.609375 35.046875 L 27.601562 35.046875 C 27.589844 35.046875 27.574219 35.046875 27.566406 35.046875 C 27.550781 35.046875 27.527344 35.046875 27.511719 35.046875 C 27.46875 35.046875 27.421875 35.046875 27.375 35.046875 C 27.335938 35.046875 27.300781 35.046875 27.265625 35.046875 C 27.167969 35.042969 27.074219 35.035156 26.976562 35.03125 C 26.9375 35.027344 26.894531 35.019531 26.851562 35.015625 L 26.820312 35.011719 L 26.796875 35.011719 C 26.777344 35.003906 26.757812 35.003906 26.734375 35 C 26.691406 34.996094 26.65625 34.988281 26.613281 34.980469 C 26.527344 34.960938 26.445312 34.945312 26.359375 34.925781 L 26.332031 34.921875 L 26.269531 34.921875 C 26.191406 34.898438 26.117188 34.878906 26.039062 34.851562 C 26 34.839844 25.964844 34.824219 25.925781 34.8125 L 25.910156 34.808594 L 25.882812 34.808594 C 25.863281 34.796875 25.835938 34.792969 25.816406 34.78125 C 25.777344 34.765625 25.742188 34.753906 25.710938 34.738281 C 25.640625 34.707031 25.566406 34.675781 25.496094 34.644531 L 25.445312 34.644531 C 25.367188 34.601562 25.285156 34.558594 25.210938 34.515625 L 25.195312 34.515625 C 25.132812 34.476562 25.0625 34.433594 25 34.394531 C 24.96875 34.371094 24.9375 34.351562 24.90625 34.328125 C 24.84375 34.285156 24.777344 34.238281 24.71875 34.191406 C 24.648438 34.132812 24.578125 34.066406 24.507812 34.003906 L 24.503906 34 L 24.492188 34 C 24.433594 33.945312 24.378906 33.886719 24.324219 33.828125 C 24.296875 33.796875 24.269531 33.769531 24.238281 33.738281 C 24.15625 33.648438 24.082031 33.550781 24.007812 33.449219 C 23.980469 33.417969 23.960938 33.382812 23.933594 33.347656 C 23.859375 33.242188 23.789062 33.136719 23.722656 33.019531 C 23.699219 32.980469 23.679688 32.9375 23.65625 32.902344 C 23.589844 32.78125 23.53125 32.652344 23.476562 32.523438 C 23.441406 32.433594 23.402344 32.335938 23.371094 32.242188 C 23.339844 32.140625 23.308594 32.039062 23.28125 31.9375 C 23.257812 31.828125 23.230469 31.714844 23.207031 31.601562 C 23.199219 31.542969 23.1875 31.480469 23.183594 31.417969 C 23.160156 31.242188 23.144531 31.058594 23.144531 30.878906 L 23.144531 30.875 C 23.144531 30.765625 23.148438 30.664062 23.15625 30.566406 C 23.171875 30.351562 23.203125 30.140625 23.25 29.9375 L 23.257812 29.90625 L 23.257812 29.894531 L 23.261719 29.867188 L 23.261719 29.855469 L 23.273438 29.824219 L 23.273438 29.820312 L 23.277344 29.792969 L 23.28125 29.777344 L 23.289062 29.761719 L 23.289062 29.753906 L 23.292969 29.734375 L 23.296875 29.71875 L 23.304688 29.691406 L 23.3125 29.660156 L 23.320312 29.644531 C 23.324219 29.621094 23.335938 29.601562 23.339844 29.578125 L 23.347656 29.5625 L 23.355469 29.53125 C 23.582031 28.851562 23.976562 28.242188 24.484375 27.757812 Z M 24.902344 27.492188 " fill-opacity="1" fill-rule="evenodd"/><g clip-path="url(#f9f6d783f5)"><path fill="#222c42" d="M 8.457031 28.984375 C 8.546875 28.886719 8.640625 28.796875 8.742188 28.710938 L 8.757812 28.695312 L 8.78125 28.679688 L 8.828125 28.632812 L 8.847656 28.617188 L 8.863281 28.605469 L 8.886719 28.589844 L 8.902344 28.574219 L 8.921875 28.558594 L 8.9375 28.546875 L 8.960938 28.53125 L 8.964844 28.527344 L 8.96875 28.527344 C 9.039062 28.476562 9.113281 28.429688 9.1875 28.386719 L 9.191406 28.382812 C 9.25 28.34375 9.3125 28.3125 9.378906 28.28125 C 9.433594 28.25 9.5 28.222656 9.558594 28.191406 C 9.667969 28.140625 9.777344 28.097656 9.894531 28.0625 L 9.957031 28.0625 L 9.972656 28.058594 L 9.992188 28.058594 C 10.113281 28.019531 10.234375 27.992188 10.355469 27.972656 C 10.402344 27.960938 10.449219 27.957031 10.496094 27.949219 C 10.585938 27.941406 10.683594 27.929688 10.777344 27.925781 C 10.839844 27.917969 10.898438 27.917969 10.964844 27.917969 C 10.988281 27.917969 11.015625 27.917969 11.046875 27.917969 L 11.105469 27.917969 C 11.121094 27.917969 11.132812 27.917969 11.148438 27.917969 L 11.152344 27.917969 C 11.199219 27.917969 11.25 27.925781 11.296875 27.929688 L 11.421875 27.929688 C 11.464844 27.933594 11.503906 27.941406 11.542969 27.945312 L 11.667969 27.945312 C 11.703125 27.957031 11.746094 27.960938 11.78125 27.972656 L 11.832031 27.972656 L 11.839844 27.976562 L 11.886719 27.976562 C 11.925781 27.988281 11.960938 28 12 28.007812 L 12.105469 28.007812 C 12.132812 28.019531 12.164062 28.03125 12.191406 28.039062 L 12.285156 27.925781 L 13.1875 26.796875 L 14.09375 25.667969 L 15.003906 24.53125 L 15.457031 23.96875 L 16.367188 22.832031 L 16.589844 22.558594 C 16.5625 22.523438 16.535156 22.488281 16.515625 22.457031 L 16.507812 22.449219 C 16.484375 22.414062 16.457031 22.371094 16.429688 22.332031 C 16.417969 22.316406 16.410156 22.300781 16.398438 22.285156 L 16.398438 22.28125 L 16.386719 22.257812 L 16.386719 22.242188 L 16.382812 22.230469 C 16.363281 22.195312 16.335938 22.15625 16.3125 22.113281 L 16.3125 22.109375 L 16.308594 22.09375 L 16.308594 22.074219 L 16.304688 22.066406 L 16.304688 22.054688 L 16.296875 22.050781 L 16.296875 21.996094 C 16.277344 21.957031 16.253906 21.917969 16.234375 21.875 L 16.234375 21.859375 L 16.222656 21.839844 C 16.21875 21.820312 16.207031 21.804688 16.203125 21.789062 L 16.191406 21.765625 L 16.191406 21.757812 C 16.171875 21.710938 16.148438 21.667969 16.132812 21.621094 L 16.132812 21.507812 L 16.128906 21.496094 L 16.128906 21.472656 C 16.09375 21.375 16.058594 21.277344 16.027344 21.179688 C 16.011719 21.125 15.996094 21.070312 15.984375 21.023438 L 15.984375 20.859375 C 15.976562 20.800781 15.964844 20.742188 15.953125 20.683594 L 15.953125 20.5 C 15.945312 20.4375 15.9375 20.375 15.933594 20.304688 L 15.933594 20.113281 C 15.933594 20.050781 15.929688 19.992188 15.929688 19.925781 C 15.929688 19.859375 15.929688 19.789062 15.933594 19.71875 L 15.933594 19.691406 C 15.9375 19.574219 15.949219 19.464844 15.964844 19.351562 L 15.96875 19.332031 L 15.976562 19.308594 L 15.980469 19.28125 C 15.980469 19.273438 15.984375 19.257812 15.984375 19.246094 L 15.984375 19.230469 C 15.984375 19.214844 15.992188 19.199219 15.992188 19.179688 L 15.992188 19.175781 C 16 19.121094 16.011719 19.070312 16.023438 19.015625 C 16.054688 18.871094 16.085938 18.730469 16.128906 18.589844 C 16.320312 17.96875 16.648438 17.402344 17.070312 16.929688 C 17.164062 16.824219 17.269531 16.714844 17.375 16.621094 C 17.589844 16.429688 17.820312 16.253906 18.0625 16.105469 C 18.132812 16.0625 18.207031 16.019531 18.277344 15.980469 L 18.28125 15.976562 L 18.285156 15.976562 C 18.339844 15.949219 18.390625 15.921875 18.445312 15.894531 C 18.503906 15.871094 18.5625 15.84375 18.625 15.816406 C 18.78125 15.746094 18.953125 15.6875 19.121094 15.640625 C 19.222656 15.609375 19.328125 15.585938 19.429688 15.5625 C 19.476562 15.550781 19.527344 15.539062 19.574219 15.535156 C 19.71875 15.507812 19.855469 15.492188 20.003906 15.480469 C 20.050781 15.476562 20.09375 15.476562 20.140625 15.46875 C 20.210938 15.464844 20.273438 15.464844 20.34375 15.464844 C 20.375 15.464844 20.40625 15.464844 20.433594 15.464844 L 20.453125 15.464844 C 20.566406 15.46875 20.675781 15.476562 20.785156 15.488281 C 20.871094 15.496094 20.949219 15.507812 21.035156 15.519531 C 21.078125 15.523438 21.113281 15.535156 21.15625 15.539062 C 21.269531 15.5625 21.378906 15.585938 21.488281 15.613281 L 21.507812 15.621094 C 21.578125 15.640625 21.660156 15.660156 21.734375 15.6875 C 21.769531 15.699219 21.808594 15.714844 21.84375 15.726562 L 21.957031 15.726562 C 21.992188 15.742188 22.03125 15.753906 22.0625 15.769531 C 22.128906 15.800781 22.203125 15.832031 22.273438 15.863281 C 22.378906 15.917969 22.480469 15.972656 22.578125 16.03125 C 22.648438 16.066406 22.710938 16.109375 22.773438 16.152344 C 22.808594 16.171875 22.839844 16.195312 22.871094 16.214844 C 22.933594 16.257812 22.996094 16.304688 23.054688 16.355469 C 23.144531 16.429688 23.234375 16.503906 23.324219 16.582031 C 23.351562 16.609375 23.382812 16.636719 23.410156 16.664062 L 23.414062 16.664062 L 23.421875 16.667969 L 23.425781 16.671875 L 23.441406 16.671875 L 23.445312 16.679688 C 23.472656 16.707031 23.503906 16.738281 23.53125 16.765625 C 23.617188 16.855469 23.695312 16.945312 23.769531 17.042969 C 23.796875 17.074219 23.820312 17.105469 23.84375 17.140625 C 23.902344 17.214844 23.953125 17.296875 24.007812 17.375 L 24.011719 17.382812 L 24.011719 17.417969 C 24.039062 17.460938 24.066406 17.507812 24.097656 17.550781 L 24.113281 17.546875 L 24.269531 17.5 L 24.429688 17.449219 L 24.589844 17.402344 L 24.746094 17.355469 L 24.90625 17.308594 L 25.0625 17.257812 L 25.382812 17.164062 L 25.539062 17.117188 L 25.699219 17.066406 L 25.859375 17.019531 L 26.015625 16.972656 L 26.175781 16.925781 L 26.332031 16.875 L 26.652344 16.78125 L 26.808594 16.730469 L 26.96875 16.683594 L 27.125 16.636719 L 27.285156 16.589844 L 27.445312 16.539062 L 27.601562 16.492188 L 27.761719 16.445312 L 27.917969 16.398438 L 28.078125 16.347656 L 28.238281 16.300781 L 28.394531 16.253906 L 28.554688 16.207031 L 28.710938 16.15625 L 29.03125 16.0625 L 29.1875 16.011719 L 29.347656 15.964844 L 29.503906 15.917969 L 29.664062 15.871094 L 29.824219 15.820312 L 29.980469 15.773438 L 30.140625 15.726562 L 30.296875 15.679688 L 30.457031 15.628906 L 30.617188 15.582031 L 30.773438 15.535156 L 30.933594 15.488281 L 31.09375 15.4375 L 31.25 15.390625 L 31.410156 15.34375 L 31.566406 15.292969 L 31.640625 15.273438 C 31.640625 15.234375 31.640625 15.203125 31.640625 15.167969 C 31.640625 14.933594 31.664062 14.699219 31.699219 14.476562 C 31.746094 14.175781 31.828125 13.882812 31.925781 13.605469 C 32.097656 13.15625 32.335938 12.738281 32.628906 12.371094 L 32.644531 12.351562 L 32.652344 12.34375 L 32.667969 12.324219 L 32.695312 12.296875 L 32.699219 12.285156 L 32.699219 12.28125 L 32.71875 12.253906 L 32.726562 12.25 L 32.734375 12.238281 L 32.746094 12.226562 L 32.761719 12.207031 L 32.773438 12.191406 L 32.777344 12.183594 L 32.789062 12.175781 L 32.816406 12.148438 L 32.824219 12.136719 L 32.84375 12.121094 L 32.851562 12.109375 L 32.867188 12.089844 L 32.875 12.085938 L 32.894531 12.0625 L 32.925781 12.03125 L 32.933594 12.027344 L 32.953125 12.003906 L 32.988281 11.96875 C 33.078125 11.882812 33.167969 11.796875 33.257812 11.722656 C 33.402344 11.601562 33.554688 11.492188 33.714844 11.390625 C 33.894531 11.273438 34.089844 11.171875 34.285156 11.082031 C 34.34375 11.054688 34.402344 11.035156 34.460938 11.007812 C 34.566406 10.964844 34.675781 10.929688 34.792969 10.890625 C 34.894531 10.859375 35 10.832031 35.105469 10.804688 C 35.246094 10.773438 35.394531 10.746094 35.542969 10.726562 C 35.589844 10.722656 35.640625 10.714844 35.6875 10.710938 C 35.796875 10.699219 35.902344 10.695312 36.015625 10.6875 C 36.039062 10.6875 36.066406 10.6875 36.09375 10.6875 C 36.128906 10.6875 36.171875 10.6875 36.210938 10.6875 C 36.300781 10.6875 36.382812 10.695312 36.46875 10.707031 L 36.507812 10.707031 C 36.585938 10.710938 36.660156 10.722656 36.738281 10.730469 L 36.769531 10.730469 L 36.792969 10.738281 L 36.832031 10.738281 C 36.90625 10.746094 36.976562 10.765625 37.046875 10.78125 L 37.066406 10.78125 C 37.144531 10.796875 37.21875 10.816406 37.300781 10.839844 C 37.335938 10.847656 37.375 10.859375 37.410156 10.871094 C 37.441406 10.882812 37.480469 10.890625 37.511719 10.902344 L 37.519531 10.902344 C 37.558594 10.914062 37.59375 10.929688 37.632812 10.941406 L 37.636719 10.941406 C 37.667969 10.949219 37.707031 10.964844 37.738281 10.976562 C 37.773438 10.992188 37.804688 11.007812 37.84375 11.019531 L 37.917969 11.019531 L 37.921875 11.023438 L 37.949219 11.023438 C 37.988281 11.039062 38.019531 11.054688 38.054688 11.074219 L 38.167969 11.074219 C 38.199219 11.089844 38.234375 11.109375 38.265625 11.125 L 38.378906 11.125 C 38.410156 11.148438 38.441406 11.164062 38.476562 11.183594 L 38.488281 11.183594 L 38.511719 11.199219 L 38.53125 11.214844 L 38.558594 11.230469 L 38.566406 11.238281 C 38.632812 11.28125 38.691406 11.324219 38.746094 11.367188 L 38.757812 11.367188 C 38.789062 11.386719 38.820312 11.414062 38.847656 11.433594 L 38.878906 11.433594 C 38.902344 11.449219 38.921875 11.472656 38.941406 11.488281 C 38.976562 11.515625 39 11.535156 39.035156 11.5625 C 39.089844 11.617188 39.148438 11.667969 39.207031 11.722656 L 39.214844 11.726562 C 39.28125 11.792969 39.34375 11.859375 39.410156 11.929688 L 39.414062 11.933594 L 39.417969 11.941406 L 39.425781 11.945312 L 39.429688 11.949219 L 39.433594 11.957031 L 39.441406 11.960938 L 39.445312 11.96875 L 39.449219 11.972656 C 39.507812 12.042969 39.566406 12.109375 39.625 12.179688 C 39.652344 12.210938 39.679688 12.242188 39.699219 12.28125 C 39.769531 12.371094 39.832031 12.46875 39.890625 12.5625 L 39.890625 12.601562 C 39.910156 12.636719 39.9375 12.675781 39.957031 12.710938 C 39.972656 12.738281 39.988281 12.765625 40 12.792969 L 40.007812 12.804688 L 40.015625 12.820312 L 40.023438 12.824219 L 40.027344 12.828125 C 40.070312 12.910156 40.113281 12.996094 40.148438 13.078125 C 40.171875 13.121094 40.1875 13.164062 40.207031 13.214844 C 40.265625 13.351562 40.316406 13.496094 40.359375 13.640625 C 40.390625 13.746094 40.417969 13.847656 40.445312 13.957031 C 40.457031 14.015625 40.472656 14.070312 40.480469 14.128906 L 40.488281 14.160156 L 40.488281 14.273438 L 40.492188 14.300781 L 40.492188 14.304688 C 40.503906 14.367188 40.507812 14.433594 40.511719 14.496094 C 40.53125 14.644531 40.535156 14.800781 40.535156 14.953125 L 40.535156 14.980469 C 40.535156 15.183594 40.519531 15.386719 40.492188 15.578125 L 40.492188 15.601562 L 40.488281 15.625 L 40.488281 15.738281 C 40.429688 16.070312 40.332031 16.390625 40.207031 16.695312 C 40.0625 17.03125 39.890625 17.34375 39.671875 17.632812 C 39.414062 17.984375 39.101562 18.296875 38.746094 18.558594 C 38.609375 18.660156 38.472656 18.753906 38.324219 18.839844 C 38.261719 18.878906 38.199219 18.914062 38.132812 18.945312 C 37.964844 19.039062 37.789062 19.113281 37.605469 19.179688 C 37.554688 19.203125 37.496094 19.21875 37.441406 19.234375 C 37.289062 19.28125 37.136719 19.324219 36.976562 19.355469 C 36.882812 19.378906 36.78125 19.394531 36.6875 19.40625 C 36.636719 19.410156 36.589844 19.414062 36.542969 19.421875 C 36.4375 19.433594 36.335938 19.4375 36.230469 19.441406 L 36.214844 19.441406 C 36.171875 19.441406 36.128906 19.441406 36.082031 19.441406 C 36.015625 19.441406 35.945312 19.441406 35.882812 19.4375 L 35.867188 19.4375 C 35.78125 19.433594 35.695312 19.425781 35.613281 19.414062 C 35.570312 19.410156 35.527344 19.40625 35.492188 19.398438 C 35.410156 19.390625 35.328125 19.375 35.246094 19.363281 C 35.132812 19.339844 35.007812 19.316406 34.898438 19.28125 C 34.824219 19.261719 34.746094 19.238281 34.671875 19.214844 C 34.632812 19.203125 34.597656 19.1875 34.558594 19.175781 L 34.539062 19.171875 L 34.527344 19.171875 L 34.519531 19.164062 L 34.449219 19.164062 C 34.414062 19.148438 34.375 19.140625 34.34375 19.121094 C 34.273438 19.089844 34.199219 19.058594 34.132812 19.027344 C 34.027344 18.972656 33.925781 18.921875 33.832031 18.863281 C 33.761719 18.824219 33.699219 18.78125 33.636719 18.738281 C 33.601562 18.71875 33.570312 18.695312 33.539062 18.675781 L 33.460938 18.675781 L 33.449219 18.664062 L 33.4375 18.65625 C 33.40625 18.632812 33.375 18.605469 33.347656 18.585938 C 33.285156 18.539062 33.226562 18.488281 33.167969 18.4375 L 33.164062 18.429688 L 33.152344 18.425781 L 33.144531 18.425781 L 33.136719 18.421875 L 33.132812 18.421875 L 33.113281 18.402344 L 33.101562 18.394531 C 33.039062 18.335938 32.980469 18.277344 32.914062 18.21875 C 32.890625 18.191406 32.859375 18.160156 32.832031 18.132812 C 32.777344 18.074219 32.71875 18.011719 32.671875 17.953125 L 32.671875 17.914062 L 32.625 17.867188 C 32.59375 17.824219 32.554688 17.78125 32.523438 17.734375 L 32.507812 17.710938 L 32.507812 17.707031 L 32.503906 17.695312 L 32.5 17.691406 L 32.5 17.664062 C 32.472656 17.625 32.449219 17.59375 32.425781 17.558594 L 32.425781 17.546875 L 32.417969 17.542969 L 32.417969 17.515625 L 32.414062 17.507812 L 32.410156 17.503906 L 32.410156 17.5 L 32.402344 17.488281 L 32.402344 17.476562 C 32.375 17.429688 32.34375 17.386719 32.320312 17.339844 L 32.1875 17.375 L 32.027344 17.425781 L 31.867188 17.472656 L 31.710938 17.519531 L 31.550781 17.566406 L 31.394531 17.617188 L 31.074219 17.710938 L 30.917969 17.761719 L 30.757812 17.808594 L 30.601562 17.855469 L 30.441406 17.902344 L 30.28125 17.953125 L 30.125 18 L 29.964844 18.046875 L 29.808594 18.09375 L 29.648438 18.144531 L 29.488281 18.191406 L 29.332031 18.238281 L 29.171875 18.285156 L 29.015625 18.335938 L 28.695312 18.429688 L 28.539062 18.480469 L 28.378906 18.527344 L 28.222656 18.574219 L 28.0625 18.621094 L 27.902344 18.671875 L 27.746094 18.71875 L 27.425781 18.8125 L 27.269531 18.863281 L 27.109375 18.910156 L 26.953125 18.957031 L 26.792969 19.003906 L 26.632812 19.054688 L 26.476562 19.101562 L 26.316406 19.148438 L 26.160156 19.199219 L 25.839844 19.292969 L 25.683594 19.339844 L 25.523438 19.390625 L 25.367188 19.4375 L 25.046875 19.53125 L 24.890625 19.582031 L 24.773438 19.613281 C 24.773438 19.664062 24.777344 19.722656 24.777344 19.777344 L 24.777344 20.082031 C 24.769531 20.285156 24.746094 20.480469 24.710938 20.671875 C 24.683594 20.804688 24.65625 20.9375 24.621094 21.066406 C 24.425781 21.769531 24.054688 22.402344 23.566406 22.917969 C 23.402344 23.09375 23.21875 23.253906 23.027344 23.402344 C 22.953125 23.457031 22.878906 23.511719 22.804688 23.5625 L 22.800781 23.570312 L 22.796875 23.574219 L 22.785156 23.574219 L 22.769531 23.589844 L 22.757812 23.589844 L 22.753906 23.59375 L 22.75 23.601562 L 22.742188 23.605469 L 22.738281 23.609375 L 22.726562 23.609375 L 22.722656 23.617188 L 22.714844 23.621094 L 22.710938 23.628906 L 22.699219 23.628906 L 22.660156 23.667969 L 22.648438 23.667969 L 22.644531 23.675781 L 22.636719 23.679688 L 22.632812 23.6875 L 22.621094 23.6875 L 22.617188 23.691406 C 22.554688 23.726562 22.488281 23.765625 22.421875 23.796875 L 22.40625 23.808594 C 22.242188 23.894531 22.066406 23.96875 21.890625 24.039062 C 21.800781 24.070312 21.707031 24.101562 21.613281 24.128906 L 21.589844 24.132812 L 21.5625 24.132812 C 21.464844 24.160156 21.363281 24.1875 21.257812 24.207031 C 21.164062 24.230469 21.0625 24.246094 20.964844 24.253906 C 20.917969 24.261719 20.871094 24.265625 20.824219 24.269531 C 20.722656 24.28125 20.617188 24.289062 20.511719 24.292969 L 20.496094 24.292969 C 20.453125 24.292969 20.410156 24.292969 20.375 24.292969 C 20.34375 24.292969 20.3125 24.292969 20.28125 24.292969 L 20.148438 24.292969 C 20.105469 24.292969 20.0625 24.289062 20.019531 24.28125 L 19.976562 24.28125 C 19.96875 24.28125 19.953125 24.28125 19.941406 24.277344 L 19.910156 24.277344 C 19.863281 24.269531 19.820312 24.265625 19.773438 24.261719 L 19.664062 24.261719 C 19.625 24.253906 19.585938 24.246094 19.542969 24.238281 L 19.433594 24.238281 C 19.394531 24.230469 19.355469 24.222656 19.316406 24.210938 L 19.242188 24.210938 L 19.210938 24.203125 C 19.175781 24.191406 19.136719 24.179688 19.101562 24.171875 L 19.089844 24.171875 L 19.0625 24.160156 L 19.046875 24.160156 L 19.027344 24.152344 L 18.996094 24.152344 C 18.957031 24.144531 18.914062 24.128906 18.878906 24.113281 L 18.871094 24.113281 L 18.863281 24.105469 L 18.847656 24.105469 L 18.835938 24.101562 L 18.816406 24.089844 L 18.800781 24.085938 L 18.777344 24.085938 C 18.742188 24.070312 18.703125 24.058594 18.671875 24.042969 L 18.667969 24.039062 L 18.652344 24.039062 L 18.640625 24.03125 L 18.625 24.03125 L 18.601562 24.019531 L 18.21875 24.503906 L 17.3125 25.632812 L 16.859375 26.199219 L 16.402344 26.761719 L 15.5 27.898438 L 15.042969 28.460938 L 14.210938 29.5 C 14.246094 29.554688 14.277344 29.613281 14.308594 29.664062 L 14.308594 29.695312 L 14.316406 29.707031 L 14.316406 29.722656 L 14.320312 29.730469 L 14.324219 29.746094 L 14.332031 29.753906 L 14.332031 29.789062 C 14.351562 29.828125 14.375 29.871094 14.390625 29.914062 L 14.390625 30.054688 C 14.410156 30.101562 14.425781 30.144531 14.441406 30.191406 L 14.441406 30.253906 L 14.449219 30.265625 L 14.449219 30.28125 L 14.453125 30.292969 L 14.453125 30.324219 L 14.457031 30.339844 L 14.457031 30.347656 C 14.472656 30.398438 14.488281 30.449219 14.5 30.5 L 14.5 30.511719 L 14.503906 30.527344 L 14.503906 30.53125 L 14.511719 30.546875 L 14.511719 30.570312 L 14.515625 30.585938 L 14.515625 30.664062 C 14.527344 30.722656 14.539062 30.78125 14.546875 30.839844 L 14.546875 31.015625 C 14.558594 31.113281 14.5625 31.203125 14.5625 31.300781 L 14.5625 31.304688 C 14.5625 31.410156 14.554688 31.511719 14.542969 31.613281 L 14.542969 31.890625 C 14.515625 32.035156 14.484375 32.171875 14.441406 32.304688 L 14.4375 32.328125 L 14.4375 32.332031 L 14.429688 32.351562 L 14.429688 32.359375 L 14.421875 32.386719 L 14.414062 32.394531 L 14.410156 32.417969 L 14.410156 32.429688 L 14.398438 32.453125 L 14.398438 32.460938 L 14.390625 32.480469 L 14.390625 32.488281 L 14.378906 32.511719 L 14.375 32.523438 L 14.367188 32.539062 L 14.367188 32.550781 L 14.359375 32.570312 L 14.351562 32.578125 L 14.347656 32.59375 L 14.339844 32.613281 L 14.335938 32.625 L 14.332031 32.640625 L 14.308594 32.6875 L 14.304688 32.699219 L 14.304688 32.703125 L 14.292969 32.726562 L 14.292969 32.730469 L 14.285156 32.753906 L 14.277344 32.761719 L 14.269531 32.785156 L 14.261719 32.796875 L 14.25 32.8125 L 14.246094 32.816406 L 14.234375 32.839844 L 14.230469 32.84375 L 14.21875 32.863281 L 14.21875 32.871094 L 14.203125 32.898438 L 14.199219 32.902344 L 14.1875 32.921875 L 14.1875 32.929688 L 14.179688 32.949219 L 14.171875 32.957031 L 14.160156 32.976562 L 14.160156 32.980469 L 14.152344 33.003906 L 14.144531 33.015625 L 14.136719 33.035156 L 14.136719 33.039062 L 14.121094 33.066406 L 14.121094 33.070312 L 14.105469 33.097656 L 14.085938 33.125 L 14.085938 33.128906 L 14.070312 33.152344 L 14.070312 33.15625 L 14.0625 33.171875 L 14.054688 33.183594 L 14.054688 33.1875 L 14.046875 33.207031 L 14.046875 33.210938 L 14.039062 33.214844 L 14.023438 33.238281 L 14.007812 33.257812 L 14.003906 33.265625 L 13.972656 33.304688 L 13.964844 33.3125 L 13.964844 33.316406 C 13.957031 33.332031 13.945312 33.347656 13.933594 33.363281 L 13.929688 33.371094 L 13.917969 33.386719 L 13.914062 33.390625 L 13.902344 33.40625 L 13.898438 33.417969 L 13.886719 33.433594 L 13.882812 33.441406 L 13.875 33.445312 L 13.855469 33.464844 L 13.839844 33.488281 L 13.890625 33.578125 L 13.960938 33.691406 L 14.03125 33.800781 L 14.097656 33.914062 L 14.167969 34.023438 L 14.234375 34.136719 L 14.304688 34.25 L 14.375 34.359375 L 14.441406 34.472656 L 14.511719 34.585938 L 14.578125 34.695312 L 14.648438 34.808594 L 14.71875 34.917969 L 14.785156 35.03125 L 14.855469 35.144531 L 14.921875 35.253906 L 15.0625 35.480469 L 15.128906 35.589844 L 15.199219 35.703125 L 15.265625 35.8125 L 15.40625 36.039062 L 15.472656 36.148438 L 15.542969 36.261719 L 15.609375 36.375 L 15.679688 36.484375 L 15.75 36.597656 L 15.816406 36.707031 L 15.886719 36.820312 L 15.953125 36.933594 L 16.023438 37.042969 L 16.089844 37.15625 L 16.160156 37.269531 L 16.230469 37.378906 L 16.296875 37.492188 L 16.367188 37.601562 L 16.433594 37.714844 L 16.503906 37.828125 L 16.519531 37.851562 C 16.5625 37.835938 16.597656 37.828125 16.640625 37.8125 L 16.800781 37.8125 C 16.851562 37.792969 16.902344 37.785156 16.953125 37.769531 L 17.117188 37.769531 C 17.164062 37.757812 17.21875 37.746094 17.265625 37.742188 L 17.410156 37.742188 C 17.464844 37.734375 17.519531 37.726562 17.578125 37.71875 L 17.695312 37.71875 C 17.742188 37.714844 17.785156 37.714844 17.832031 37.710938 L 17.972656 37.710938 C 18.003906 37.710938 18.039062 37.710938 18.070312 37.710938 C 18.117188 37.710938 18.164062 37.710938 18.207031 37.710938 L 18.210938 37.710938 C 18.253906 37.710938 18.296875 37.714844 18.339844 37.714844 L 18.464844 37.714844 C 18.507812 37.71875 18.550781 37.726562 18.59375 37.730469 L 18.652344 37.730469 L 18.671875 37.734375 L 18.691406 37.742188 L 18.699219 37.742188 C 18.742188 37.746094 18.777344 37.753906 18.820312 37.761719 L 18.824219 37.761719 C 18.863281 37.769531 18.894531 37.773438 18.929688 37.785156 L 18.941406 37.785156 C 18.980469 37.789062 19.019531 37.800781 19.058594 37.8125 L 19.085938 37.8125 C 19.109375 37.816406 19.140625 37.828125 19.167969 37.832031 C 19.207031 37.84375 19.242188 37.851562 19.285156 37.863281 L 19.402344 37.863281 C 19.4375 37.875 19.480469 37.890625 19.519531 37.902344 L 19.523438 37.902344 C 19.550781 37.910156 19.570312 37.917969 19.597656 37.929688 L 19.628906 37.9375 C 19.664062 37.953125 19.703125 37.964844 19.734375 37.980469 L 19.757812 37.980469 L 19.761719 37.988281 L 19.78125 37.996094 L 19.792969 38.003906 L 19.796875 38.003906 L 19.8125 38.007812 L 19.820312 38.007812 L 19.828125 38.011719 C 19.867188 38.027344 19.898438 38.046875 19.9375 38.0625 L 20.019531 38.0625 L 20.027344 38.066406 L 20.03125 38.070312 L 20.035156 38.070312 C 20.074219 38.085938 20.105469 38.105469 20.140625 38.125 L 20.253906 38.125 C 20.285156 38.140625 20.320312 38.164062 20.351562 38.183594 L 20.363281 38.183594 L 20.378906 38.195312 C 20.394531 38.203125 20.410156 38.214844 20.433594 38.226562 L 20.4375 38.226562 L 20.453125 38.238281 L 20.460938 38.238281 C 20.492188 38.257812 20.523438 38.28125 20.554688 38.300781 L 20.628906 38.300781 L 20.632812 38.304688 L 20.644531 38.304688 C 20.675781 38.328125 20.707031 38.347656 20.738281 38.375 L 20.753906 38.375 C 20.777344 38.390625 20.804688 38.40625 20.824219 38.429688 C 20.855469 38.453125 20.894531 38.480469 20.925781 38.507812 L 20.929688 38.507812 L 20.941406 38.519531 L 20.945312 38.519531 L 20.957031 38.523438 L 20.960938 38.523438 L 20.964844 38.53125 L 21.003906 38.53125 C 21.035156 38.554688 21.0625 38.582031 21.09375 38.605469 L 21.164062 38.605469 C 21.1875 38.628906 21.21875 38.65625 21.246094 38.683594 L 21.253906 38.683594 L 21.257812 38.6875 L 21.261719 38.695312 L 21.269531 38.699219 L 21.273438 38.707031 L 21.277344 38.710938 L 21.285156 38.714844 C 21.292969 38.726562 21.304688 38.738281 21.308594 38.746094 C 21.335938 38.78125 21.367188 38.804688 21.394531 38.839844 L 21.398438 38.84375 L 21.40625 38.847656 L 21.410156 38.855469 L 21.417969 38.863281 L 21.421875 38.871094 L 21.457031 38.90625 C 21.5 38.957031 21.542969 39.003906 21.585938 39.058594 L 21.585938 39.097656 C 21.613281 39.132812 21.636719 39.167969 21.664062 39.207031 L 21.664062 39.214844 C 21.6875 39.25 21.710938 39.28125 21.734375 39.308594 C 21.757812 39.34375 21.78125 39.375 21.808594 39.414062 C 21.867188 39.5 21.917969 39.589844 21.972656 39.679688 L 21.972656 39.710938 C 22.003906 39.765625 22.03125 39.816406 22.054688 39.871094 L 22.054688 39.890625 L 22.0625 39.902344 L 22.0625 39.910156 C 22.078125 39.933594 22.085938 39.96875 22.101562 39.992188 C 22.125 40.042969 22.144531 40.089844 22.167969 40.136719 L 22.167969 40.207031 L 22.171875 40.21875 L 22.171875 40.222656 L 22.183594 40.253906 L 22.183594 40.261719 C 22.203125 40.308594 22.21875 40.355469 22.234375 40.402344 C 22.289062 40.550781 22.335938 40.703125 22.378906 40.855469 C 22.40625 40.96875 22.429688 41.078125 22.453125 41.191406 C 22.472656 41.3125 22.488281 41.441406 22.503906 41.570312 C 22.511719 41.640625 22.515625 41.707031 22.519531 41.773438 C 22.527344 41.855469 22.527344 41.941406 22.527344 42.027344 C 22.527344 42.1875 22.519531 42.339844 22.503906 42.496094 C 22.484375 42.726562 22.441406 42.949219 22.390625 43.160156 C 22.347656 43.335938 22.292969 43.507812 22.230469 43.671875 C 22.09375 44.046875 21.90625 44.390625 21.6875 44.710938 L 21.6875 44.714844 C 21.675781 44.726562 21.667969 44.742188 21.660156 44.753906 C 21.648438 44.765625 21.644531 44.78125 21.632812 44.789062 L 21.628906 44.796875 C 21.617188 44.808594 21.605469 44.824219 21.601562 44.832031 C 21.578125 44.859375 21.558594 44.886719 21.542969 44.914062 C 21.53125 44.925781 21.523438 44.941406 21.515625 44.949219 L 21.511719 44.957031 L 21.507812 44.960938 C 21.394531 45.101562 21.273438 45.234375 21.144531 45.359375 C 20.925781 45.585938 20.675781 45.78125 20.410156 45.957031 C 20.34375 46 20.28125 46.042969 20.210938 46.085938 C 20.03125 46.1875 19.851562 46.28125 19.65625 46.363281 C 19.597656 46.382812 19.542969 46.410156 19.484375 46.429688 C 19.378906 46.46875 19.269531 46.503906 19.164062 46.539062 C 19.015625 46.578125 18.863281 46.617188 18.703125 46.644531 C 18.65625 46.65625 18.609375 46.660156 18.554688 46.671875 C 18.421875 46.691406 18.285156 46.703125 18.148438 46.710938 L 18.136719 46.710938 C 18.0625 46.71875 17.988281 46.71875 17.914062 46.71875 C 17.863281 46.71875 17.816406 46.71875 17.761719 46.71875 L 17.644531 46.71875 C 17.605469 46.71875 17.5625 46.710938 17.519531 46.707031 L 17.441406 46.707031 C 17.429688 46.707031 17.414062 46.703125 17.402344 46.703125 L 17.441406 46.707031 L 17.28125 46.6875 L 17.402344 46.703125 C 17.359375 46.695312 17.320312 46.691406 17.28125 46.6875 L 17.25 46.679688 L 17.171875 46.679688 C 17.128906 46.675781 17.089844 46.664062 17.046875 46.660156 L 17.023438 46.660156 L 17.007812 46.65625 C 16.980469 46.648438 16.957031 46.644531 16.933594 46.636719 C 16.894531 46.628906 16.851562 46.621094 16.816406 46.613281 L 16.761719 46.613281 L 16.730469 46.601562 L 16.722656 46.597656 L 16.710938 46.597656 C 16.671875 46.585938 16.636719 46.574219 16.597656 46.5625 L 16.488281 46.5625 C 16.453125 46.554688 16.414062 46.539062 16.378906 46.527344 L 16.292969 46.527344 L 16.28125 46.519531 L 16.265625 46.519531 C 16.230469 46.503906 16.191406 46.496094 16.160156 46.480469 L 16.113281 46.480469 L 16.085938 46.46875 L 16.074219 46.460938 L 16.066406 46.460938 L 16.050781 46.457031 C 16.011719 46.441406 15.980469 46.425781 15.945312 46.410156 L 15.9375 46.410156 L 15.921875 46.402344 L 15.902344 46.402344 L 15.878906 46.394531 L 15.875 46.394531 C 15.796875 46.355469 15.722656 46.3125 15.648438 46.269531 L 15.636719 46.265625 C 15.605469 46.246094 15.566406 46.226562 15.535156 46.207031 L 15.53125 46.203125 L 15.519531 46.203125 L 15.511719 46.195312 L 15.503906 46.195312 L 15.484375 46.1875 L 15.476562 46.179688 L 15.460938 46.167969 L 15.453125 46.167969 L 15.445312 46.164062 L 15.441406 46.164062 C 15.410156 46.144531 15.378906 46.121094 15.347656 46.101562 L 15.324219 46.101562 L 15.320312 46.09375 L 15.304688 46.09375 L 15.296875 46.089844 L 15.292969 46.089844 L 15.289062 46.085938 L 15.265625 46.085938 C 15.203125 46.042969 15.140625 45.992188 15.082031 45.945312 C 15.050781 45.917969 15.023438 45.898438 14.992188 45.871094 L 14.976562 45.859375 L 14.960938 45.859375 L 14.953125 45.855469 L 14.933594 45.855469 L 14.90625 45.828125 C 14.875 45.800781 14.847656 45.777344 14.816406 45.75 C 14.792969 45.722656 14.757812 45.695312 14.734375 45.667969 C 14.707031 45.644531 14.675781 45.617188 14.648438 45.585938 C 14.621094 45.558594 14.601562 45.535156 14.574219 45.507812 C 14.542969 45.476562 14.515625 45.445312 14.484375 45.414062 L 14.484375 45.390625 L 14.480469 45.386719 L 14.472656 45.382812 L 14.46875 45.375 L 14.464844 45.371094 L 14.457031 45.367188 L 14.457031 45.359375 L 14.453125 45.351562 C 14.425781 45.316406 14.398438 45.285156 14.375 45.253906 L 14.375 45.175781 L 14.367188 45.164062 L 14.367188 45.152344 C 14.316406 45.082031 14.261719 45.007812 14.214844 44.941406 C 14.1875 44.902344 14.167969 44.871094 14.144531 44.832031 C 14.09375 44.753906 14.046875 44.667969 13.996094 44.589844 L 13.996094 44.574219 C 13.941406 44.464844 13.882812 44.355469 13.835938 44.238281 C 13.8125 44.195312 13.796875 44.148438 13.777344 44.105469 C 13.738281 44.011719 13.703125 43.917969 13.671875 43.820312 C 13.617188 43.667969 13.574219 43.511719 13.539062 43.351562 C 13.511719 43.234375 13.492188 43.117188 13.472656 43 C 13.464844 42.9375 13.457031 42.875 13.449219 42.808594 C 13.433594 42.644531 13.421875 42.480469 13.421875 42.316406 L 13.421875 42.300781 C 13.421875 42.15625 13.433594 42.011719 13.449219 41.867188 L 13.449219 41.863281 L 13.453125 41.824219 L 13.453125 41.789062 L 13.457031 41.757812 C 13.464844 41.722656 13.46875 41.691406 13.46875 41.660156 C 13.484375 41.542969 13.507812 41.425781 13.53125 41.3125 L 13.53125 41.304688 L 13.539062 41.277344 L 13.539062 41.265625 L 13.542969 41.238281 L 13.542969 41.230469 L 13.546875 41.203125 L 13.554688 41.191406 L 13.566406 41.160156 L 13.574219 41.121094 L 13.574219 41.117188 C 13.582031 41.105469 13.582031 41.089844 13.585938 41.078125 C 13.589844 41.070312 13.589844 41.054688 13.597656 41.042969 L 13.597656 41.039062 L 13.605469 41 L 13.617188 40.960938 L 13.617188 40.957031 C 13.621094 40.945312 13.621094 40.9375 13.628906 40.925781 L 13.628906 40.921875 C 13.632812 40.910156 13.632812 40.898438 13.636719 40.886719 L 13.636719 40.878906 L 13.644531 40.867188 C 13.839844 40.269531 14.15625 39.734375 14.554688 39.269531 L 14.558594 39.265625 L 14.5625 39.257812 L 14.570312 39.253906 L 14.585938 39.238281 L 14.589844 39.230469 L 14.59375 39.226562 L 14.601562 39.222656 L 14.605469 39.214844 L 14.613281 39.210938 L 14.617188 39.207031 L 14.621094 39.199219 L 14.628906 39.195312 L 14.632812 39.191406 L 14.636719 39.183594 L 14.644531 39.179688 L 14.648438 39.171875 L 14.652344 39.167969 L 14.660156 39.164062 L 14.664062 39.15625 L 14.667969 39.152344 L 14.675781 39.148438 L 14.679688 39.140625 L 14.691406 39.132812 L 14.695312 39.125 L 14.703125 39.121094 L 14.722656 39.097656 L 14.726562 39.09375 L 14.75 39.074219 L 14.753906 39.066406 L 14.753906 39.0625 L 14.78125 39.035156 L 14.675781 38.863281 L 14.605469 38.753906 L 14.539062 38.640625 L 14.46875 38.53125 L 14.398438 38.417969 L 14.332031 38.304688 L 14.261719 38.195312 L 14.195312 38.082031 L 14.125 37.96875 L 14.054688 37.859375 L 13.988281 37.746094 L 13.917969 37.636719 L 13.851562 37.523438 L 13.78125 37.410156 L 13.710938 37.300781 L 13.644531 37.1875 L 13.574219 37.074219 L 13.507812 36.964844 L 13.4375 36.851562 L 13.367188 36.742188 L 13.300781 36.628906 L 13.230469 36.515625 L 13.164062 36.40625 L 13.023438 36.179688 L 12.957031 36.070312 L 12.886719 35.957031 L 12.820312 35.847656 L 12.679688 35.621094 L 12.613281 35.511719 L 12.542969 35.398438 L 12.476562 35.285156 L 12.40625 35.175781 L 12.335938 35.0625 L 12.269531 34.953125 L 12.199219 34.839844 L 12.132812 34.726562 L 12.101562 34.675781 C 12.074219 34.679688 12.046875 34.683594 12.019531 34.695312 L 11.9375 34.695312 L 11.914062 34.703125 L 11.878906 34.703125 L 11.863281 34.707031 C 11.8125 34.71875 11.765625 34.722656 11.714844 34.734375 L 11.570312 34.734375 C 11.523438 34.738281 11.480469 34.742188 11.433594 34.742188 L 11.324219 34.742188 C 11.296875 34.742188 11.269531 34.742188 11.242188 34.742188 C 11.179688 34.742188 11.121094 34.742188 11.058594 34.738281 C 10.972656 34.734375 10.890625 34.726562 10.804688 34.71875 C 10.761719 34.710938 10.726562 34.707031 10.683594 34.703125 L 10.65625 34.703125 C 10.625 34.695312 10.597656 34.691406 10.566406 34.683594 C 10.53125 34.679688 10.488281 34.667969 10.449219 34.660156 C 10.371094 34.644531 10.296875 34.621094 10.222656 34.59375 C 10.113281 34.558594 10 34.519531 9.894531 34.472656 C 9.859375 34.457031 9.820312 34.441406 9.785156 34.425781 L 9.777344 34.425781 L 9.757812 34.414062 C 9.738281 34.402344 9.710938 34.394531 9.6875 34.382812 C 9.65625 34.367188 9.621094 34.34375 9.589844 34.328125 C 9.519531 34.292969 9.457031 34.253906 9.394531 34.210938 L 9.324219 34.210938 C 9.25 34.160156 9.175781 34.105469 9.101562 34.050781 C 9.039062 34.003906 8.980469 33.949219 8.921875 33.902344 C 8.890625 33.875 8.863281 33.847656 8.835938 33.824219 C 8.78125 33.769531 8.726562 33.710938 8.671875 33.652344 C 8.621094 33.59375 8.566406 33.53125 8.515625 33.464844 C 8.460938 33.402344 8.414062 33.332031 8.367188 33.257812 C 8.320312 33.183594 8.273438 33.109375 8.230469 33.035156 C 8.160156 32.914062 8.097656 32.789062 8.042969 32.664062 C 8.023438 32.613281 8.007812 32.570312 7.992188 32.523438 C 7.953125 32.421875 7.921875 32.320312 7.898438 32.21875 L 7.898438 32.078125 C 7.886719 32.019531 7.871094 31.960938 7.863281 31.902344 L 7.863281 31.886719 L 7.859375 31.867188 L 7.859375 31.859375 C 7.832031 31.699219 7.816406 31.535156 7.816406 31.363281 L 7.816406 31.304688 C 7.816406 31.199219 7.824219 31.089844 7.832031 30.984375 L 7.832031 30.980469 C 7.832031 30.96875 7.832031 30.953125 7.839844 30.941406 L 7.839844 30.898438 C 7.839844 30.890625 7.84375 30.878906 7.84375 30.867188 L 7.84375 30.855469 C 7.863281 30.6875 7.902344 30.515625 7.945312 30.351562 C 8.097656 29.796875 8.386719 29.300781 8.769531 28.894531 Z M 8.457031 28.984375 " fill-opacity="1" fill-rule="evenodd"/></g><g clip-path="url(#c34bb3e892)"><path fill="#222c42" d="M 43.851562 48.496094 L 43.867188 48.492188 L 43.882812 48.484375 L 43.945312 48.484375 C 44.226562 48.40625 44.523438 48.367188 44.828125 48.367188 C 46.683594 48.367188 48.1875 49.882812 48.1875 51.75 C 48.1875 52.429688 47.984375 53.058594 47.644531 53.59375 L 51.128906 58.015625 C 51.484375 57.890625 51.871094 57.8125 52.273438 57.8125 C 54.125 57.8125 55.625 59.328125 55.625 61.191406 C 55.625 63.054688 54.125 64.566406 52.273438 64.566406 C 50.421875 64.566406 48.914062 63.054688 48.914062 61.191406 C 48.914062 60.507812 49.117188 59.878906 49.453125 59.347656 L 45.96875 54.921875 C 45.617188 55.050781 45.230469 55.121094 44.828125 55.121094 C 43.277344 55.121094 41.976562 54.066406 41.59375 52.628906 L 41.585938 52.605469 L 41.585938 52.601562 C 41.582031 52.582031 41.578125 52.554688 41.570312 52.53125 C 41.539062 52.390625 41.511719 52.246094 41.496094 52.101562 C 41.488281 51.996094 41.480469 51.886719 41.476562 51.777344 L 41.476562 51.769531 C 41.476562 51.648438 41.480469 51.527344 41.496094 51.410156 L 41.496094 51.402344 C 41.496094 51.394531 41.503906 51.378906 41.503906 51.367188 L 41.503906 51.355469 L 41.507812 51.328125 L 41.511719 51.308594 L 41.511719 51.285156 L 41.519531 51.261719 L 41.519531 51.25 C 41.550781 51.0625 41.59375 50.886719 41.652344 50.710938 C 41.792969 50.289062 42.011719 49.902344 42.296875 49.570312 C 42.390625 49.460938 42.496094 49.355469 42.609375 49.253906 L 42.613281 49.246094 L 42.617188 49.242188 C 42.628906 49.230469 42.640625 49.226562 42.644531 49.214844 C 42.65625 49.203125 42.664062 49.199219 42.675781 49.1875 C 42.6875 49.179688 42.699219 49.171875 42.707031 49.164062 C 42.71875 49.15625 42.730469 49.144531 42.734375 49.140625 L 42.746094 49.128906 C 42.753906 49.125 42.761719 49.113281 42.769531 49.109375 L 42.777344 49.105469 C 42.789062 49.097656 42.796875 49.085938 42.804688 49.082031 L 42.808594 49.078125 C 42.820312 49.070312 42.828125 49.0625 42.839844 49.054688 C 42.910156 49.003906 42.984375 48.953125 43.058594 48.910156 C 43.179688 48.835938 43.304688 48.769531 43.4375 48.710938 C 43.570312 48.644531 43.710938 48.597656 43.855469 48.550781 Z M 43.851562 48.496094 " fill-opacity="1" fill-rule="evenodd"/></g></svg>